<svg id="svg" version="1.1" xmlns="http://www.w3.org/2000/svg" xmlns:xlink="http://www.w3.org/1999/xlink" width="400" height="400" viewBox="0, 0, 400,400"><g id="svgg"><path id="path0" d="M187.800 15.249 C 186.480 15.431,184.575 15.577,183.566 15.573 C 182.557 15.570,180.937 15.765,179.966 16.008 C 178.995 16.250,177.930 16.444,177.600 16.439 C 175.389 16.404,161.142 19.719,158.400 20.907 C 157.850 21.145,157.281 21.314,157.137 21.282 C 156.815 21.212,147.551 24.424,145.600 25.282 C 144.830 25.621,143.030 26.392,141.600 26.997 C 137.841 28.587,129.008 33.148,128.141 33.947 C 127.733 34.323,126.834 34.862,126.142 35.146 C 125.450 35.430,124.545 35.963,124.130 36.331 C 123.715 36.699,122.535 37.442,121.506 37.982 C 120.478 38.522,119.098 39.467,118.440 40.082 C 117.782 40.697,117.144 41.200,117.023 41.200 C 116.708 41.200,112.881 43.979,112.727 44.318 C 112.657 44.473,111.835 45.098,110.900 45.706 C 109.965 46.314,109.200 46.989,109.200 47.206 C 109.200 47.423,108.945 47.600,108.633 47.600 C 107.412 47.600,87.200 68.456,87.200 69.715 C 87.200 69.825,86.660 70.493,86.000 71.200 C 85.340 71.907,84.800 72.736,84.800 73.042 C 84.800 73.349,84.625 73.600,84.412 73.600 C 83.681 73.600,75.220 86.964,75.575 87.555 C 75.626 87.641,75.500 87.821,75.295 87.955 C 74.753 88.310,72.762 91.999,73.108 92.006 C 73.269 92.009,73.199 92.144,72.952 92.306 C 72.306 92.730,70.390 96.656,70.685 96.951 C 70.821 97.088,70.713 97.200,70.443 97.200 C 70.173 97.200,70.064 97.380,70.200 97.600 C 70.336 97.820,70.276 98.000,70.067 98.000 C 69.734 98.000,69.022 99.939,69.201 100.355 C 69.238 100.441,69.092 100.621,68.876 100.755 C 68.525 100.975,66.054 106.956,65.831 108.126 C 65.782 108.387,65.468 109.230,65.135 110.000 C 64.190 112.180,62.130 118.895,61.821 120.800 C 61.732 121.350,61.631 121.800,61.597 121.800 C 61.562 121.800,61.449 122.326,61.344 122.969 C 61.240 123.612,60.970 124.483,60.745 124.903 C 60.519 125.324,60.428 125.762,60.542 125.875 C 60.656 125.989,60.560 126.559,60.328 127.141 C 60.097 127.724,59.835 128.920,59.746 129.800 C 59.569 131.552,59.310 133.000,59.175 133.000 C 59.127 133.000,59.043 133.630,58.987 134.400 C 58.932 135.170,58.759 136.340,58.603 137.000 C 58.345 138.092,58.130 140.206,57.889 144.000 C 57.840 144.770,57.657 145.506,57.482 145.635 C 56.822 146.122,57.657 151.200,58.398 151.200 C 58.776 151.200,61.758 154.011,65.025 157.447 C 79.646 172.824,89.375 175.441,102.000 167.393 C 107.377 163.966,114.681 155.930,116.605 151.326 C 118.066 147.830,117.447 147.894,106.632 152.359 C 101.755 154.373,101.656 154.297,105.036 151.132 C 113.384 143.316,114.439 141.841,110.079 144.087 C 109.045 144.619,105.770 146.314,102.800 147.853 C 98.387 150.140,90.513 153.200,89.040 153.200 C 88.180 153.200,90.285 151.619,97.863 146.573 C 113.694 136.030,121.164 129.760,127.956 121.313 C 130.393 118.281,132.204 115.738,131.979 115.662 C 130.608 115.198,119.539 117.096,108.664 119.658 C 97.890 122.197,98.806 121.225,112.102 116.013 C 120.356 112.777,125.023 110.343,133.997 104.595 C 145.378 97.305,153.093 93.115,161.510 89.651 C 168.415 86.810,170.389 85.742,169.432 85.365 C 168.260 84.903,158.227 85.882,150.443 87.217 C 141.628 88.729,138.405 88.879,140.666 87.673 C 142.113 86.901,159.675 81.599,169.444 78.985 C 181.273 75.820,183.974 74.807,195.000 69.403 C 199.620 67.138,206.280 64.076,209.800 62.597 C 219.437 58.550,219.517 58.512,221.445 57.211 C 227.580 53.071,242.785 60.469,249.904 71.057 C 257.006 81.620,261.449 83.617,261.107 76.093 C 260.437 61.409,251.133 50.644,233.881 44.593 C 228.887 42.841,228.821 42.375,233.624 42.774 C 242.854 43.540,256.129 53.654,261.185 63.772 C 267.850 77.109,263.837 90.040,248.739 103.880 C 243.288 108.877,229.493 117.283,221.719 120.344 C 216.266 122.493,211.488 124.475,208.800 125.706 C 207.150 126.462,204.931 127.397,203.869 127.785 C 194.809 131.092,178.509 141.370,168.514 150.078 C 157.714 159.489,154.379 162.590,152.254 165.200 C 150.910 166.850,147.577 170.678,144.848 173.706 C 134.971 184.664,130.870 191.750,129.211 200.723 C 128.669 203.658,128.690 203.653,126.290 201.329 C 118.349 193.638,103.485 187.761,98.400 190.301 C 96.001 191.499,96.562 192.142,100.452 192.654 C 111.065 194.050,121.563 200.305,124.689 207.095 C 126.090 210.137,125.530 210.272,122.269 207.680 C 113.905 201.034,106.254 199.163,90.800 199.984 C 84.020 200.344,83.200 200.521,83.200 201.629 C 83.200 202.835,84.663 203.317,87.670 203.102 C 95.945 202.510,106.669 203.700,109.821 205.559 C 110.525 205.975,111.638 206.433,112.295 206.577 C 114.895 207.148,122.000 214.212,122.000 216.226 C 122.000 216.702,121.639 217.552,121.197 218.113 C 112.189 229.565,130.159 256.758,145.571 254.998 C 150.726 254.409,151.306 254.492,153.848 256.176 C 160.895 260.845,165.029 266.487,166.619 273.604 C 166.987 275.252,167.555 277.770,167.882 279.200 C 168.208 280.630,168.503 283.060,168.538 284.600 L 168.600 287.400 156.000 287.407 C 149.070 287.410,142.995 287.558,142.500 287.734 C 141.138 288.218,141.447 289.077,142.900 288.847 C 143.065 288.821,143.200 288.980,143.200 289.200 C 143.200 289.420,143.335 289.572,143.500 289.538 C 143.665 289.504,144.520 289.796,145.400 290.187 C 146.280 290.578,147.180 290.929,147.400 290.968 C 147.620 291.007,148.160 291.237,148.600 291.480 C 149.040 291.723,149.535 291.939,149.700 291.961 C 150.252 292.033,150.826 292.199,151.600 292.510 C 153.946 293.453,161.260 295.687,162.417 295.815 C 162.756 295.852,163.402 296.080,163.853 296.321 C 164.304 296.563,165.016 296.756,165.436 296.752 C 165.856 296.747,167.470 297.108,169.021 297.553 C 170.573 297.998,172.193 298.358,172.621 298.352 C 173.394 298.342,174.045 298.480,175.200 298.895 C 176.245 299.271,182.143 300.025,183.600 299.968 C 184.370 299.938,185.810 300.099,186.800 300.325 C 189.113 300.854,209.958 300.853,212.600 300.324 C 213.700 300.104,215.449 299.949,216.486 299.981 C 217.524 300.012,219.144 299.822,220.086 299.559 C 221.029 299.295,222.160 299.102,222.600 299.129 C 223.040 299.157,224.030 298.969,224.800 298.711 C 225.570 298.453,226.526 298.290,226.924 298.350 C 227.322 298.410,227.862 298.301,228.124 298.108 C 228.386 297.916,229.230 297.705,230.000 297.639 C 230.770 297.573,231.703 297.358,232.074 297.160 C 232.444 296.962,233.199 296.800,233.750 296.800 C 234.302 296.800,234.866 296.617,235.004 296.393 C 235.142 296.170,235.410 296.083,235.600 296.200 C 235.790 296.317,236.060 296.227,236.200 296.000 C 236.340 295.773,236.601 295.677,236.780 295.788 C 236.958 295.898,238.161 295.655,239.452 295.249 C 240.743 294.842,242.835 294.198,244.099 293.818 C 245.364 293.437,246.501 292.960,246.627 292.756 C 246.753 292.553,246.999 292.476,247.175 292.584 C 247.554 292.819,255.926 289.529,257.387 288.572 C 257.944 288.207,258.400 288.022,258.400 288.162 C 258.400 288.302,259.165 288.018,260.100 287.531 C 261.035 287.045,262.052 286.603,262.360 286.550 C 262.668 286.497,263.028 286.306,263.160 286.127 C 263.292 285.947,263.580 285.769,263.800 285.730 C 265.080 285.507,275.237 279.442,275.533 278.723 C 275.607 278.545,275.836 278.400,276.043 278.400 C 276.609 278.400,281.600 275.176,281.600 274.811 C 281.600 274.636,281.915 274.409,282.300 274.305 C 283.374 274.016,290.771 268.355,293.635 265.629 C 295.039 264.293,296.264 263.200,296.356 263.200 C 296.773 263.200,305.200 254.589,305.200 254.163 C 305.200 253.901,305.446 253.591,305.748 253.475 C 306.441 253.209,311.200 247.410,311.200 246.831 C 311.200 246.594,311.386 246.400,311.613 246.400 C 311.839 246.400,312.132 246.122,312.262 245.783 C 312.392 245.443,313.052 244.540,313.729 243.776 C 315.518 241.755,320.800 233.953,320.800 233.330 C 320.800 233.039,320.942 232.800,321.116 232.800 C 321.457 232.800,324.354 227.630,324.340 227.045 C 324.335 226.849,324.505 226.579,324.716 226.445 C 325.316 226.063,329.990 216.523,329.713 216.246 C 329.578 216.111,329.657 216.000,329.890 216.000 C 330.276 216.000,330.789 214.711,330.748 213.845 C 330.739 213.649,330.923 213.372,331.156 213.227 C 331.389 213.083,331.635 212.613,331.701 212.183 C 331.768 211.752,331.941 211.211,332.086 210.979 C 332.514 210.295,334.103 206.251,334.200 205.600 C 334.249 205.270,334.403 204.730,334.541 204.400 C 335.338 202.509,336.769 197.835,336.603 197.669 C 336.495 197.562,336.565 197.277,336.759 197.037 C 337.116 196.594,338.622 190.803,338.954 188.600 C 339.053 187.940,339.163 187.400,339.198 187.400 C 339.290 187.400,339.551 186.009,339.761 184.400 C 339.861 183.630,339.969 183.000,340.001 183.000 C 340.033 183.000,340.136 182.550,340.230 182.000 C 340.324 181.450,340.557 180.190,340.747 179.200 C 340.938 178.210,341.134 176.590,341.183 175.600 C 341.299 173.279,341.430 172.341,341.742 171.600 C 342.067 170.828,341.844 144.523,341.501 143.200 C 341.358 142.650,341.142 140.850,341.021 139.200 C 340.899 137.550,340.628 135.480,340.419 134.600 C 340.210 133.720,340.030 132.955,340.020 132.900 C 340.009 132.845,339.987 132.755,339.971 132.700 C 339.956 132.645,339.861 131.880,339.762 131.000 C 339.413 127.923,336.235 115.187,335.470 113.800 C 335.227 113.360,335.015 112.910,334.999 112.800 C 334.540 109.687,326.141 90.159,324.847 89.200 C 324.699 89.090,324.241 88.235,323.828 87.300 C 323.416 86.365,322.926 85.600,322.739 85.600 C 322.553 85.600,322.442 85.465,322.494 85.300 C 322.629 84.867,320.004 80.400,319.614 80.400 C 319.434 80.400,319.182 79.981,319.053 79.469 C 318.924 78.957,318.410 78.092,317.910 77.547 C 317.409 77.003,316.753 76.088,316.452 75.515 C 316.151 74.942,315.386 73.906,314.752 73.212 C 314.118 72.518,313.600 71.853,313.600 71.733 C 313.600 71.249,308.066 64.421,305.550 61.800 C 297.831 53.758,290.921 47.200,290.165 47.200 C 289.901 47.200,289.582 46.930,289.455 46.600 C 289.329 46.270,288.949 46.000,288.613 46.000 C 288.276 46.000,288.000 45.849,288.000 45.665 C 288.000 45.193,278.897 38.437,277.200 37.650 C 276.430 37.292,275.710 36.884,275.600 36.742 C 274.346 35.124,255.805 25.619,252.946 25.128 C 252.536 25.058,252.106 24.876,251.992 24.725 C 251.371 23.905,232.859 18.309,230.400 18.197 C 230.069 18.182,229.619 18.063,229.400 17.931 C 228.944 17.658,222.510 16.440,221.600 16.455 C 221.270 16.460,220.550 16.335,220.000 16.177 C 219.450 16.019,217.830 15.815,216.400 15.724 C 214.970 15.632,212.540 15.396,211.000 15.199 C 207.561 14.759,191.091 14.795,187.800 15.249 M188.000 36.633 C 210.372 39.903,232.402 44.688,239.460 47.809 C 246.435 50.894,254.515 58.033,257.034 63.336 C 259.692 68.935,261.524 79.600,259.826 79.600 C 257.710 79.600,255.171 77.167,251.157 71.293 C 242.764 59.011,230.255 53.501,210.600 53.427 C 203.558 53.401,203.270 53.433,197.471 54.900 C 188.434 57.186,188.066 57.147,170.005 51.950 C 154.868 47.594,145.338 42.843,147.211 40.587 C 148.730 38.756,158.611 36.265,167.600 35.446 C 171.524 35.089,181.346 35.660,188.000 36.633 M246.048 40.587 C 256.801 42.468,266.603 48.040,273.869 56.400 C 281.832 65.563,289.744 80.925,289.242 86.250 C 289.085 87.925,283.974 86.611,282.479 84.511 C 280.870 82.251,278.804 77.784,278.802 76.560 C 278.800 75.193,277.277 72.814,274.668 70.100 C 271.930 67.252,271.566 68.362,273.800 72.746 C 275.476 76.034,275.486 76.226,274.159 79.350 C 273.587 80.697,272.961 82.205,272.768 82.700 C 271.837 85.089,271.047 83.036,270.192 76.000 C 269.516 70.441,267.651 65.113,265.869 63.651 C 265.037 62.968,265.038 62.999,265.937 65.637 C 269.508 76.113,267.899 88.575,262.606 91.425 C 260.595 92.508,260.504 91.963,262.121 88.502 C 269.888 71.874,261.532 54.362,240.900 44.029 C 238.205 42.680,236.000 41.406,236.000 41.199 C 236.000 40.041,241.137 39.727,246.048 40.587 M201.200 46.738 C 201.200 47.019,201.906 47.200,202.996 47.200 C 224.792 47.200,245.210 55.825,250.619 67.316 C 253.522 73.484,257.387 73.850,254.972 67.728 C 251.626 59.246,242.348 52.325,230.200 49.251 C 222.346 47.264,201.200 45.431,201.200 46.738 M239.800 53.843 C 247.910 57.971,252.246 62.339,254.374 68.523 C 255.902 72.966,253.795 71.745,251.155 66.659 C 248.349 61.254,243.681 57.044,236.500 53.444 C 234.905 52.644,233.600 51.880,233.600 51.745 C 233.600 51.173,236.451 52.138,239.800 53.843 M293.937 87.275 C 309.265 113.872,313.792 129.913,313.782 157.600 C 313.761 213.804,284.643 256.736,233.400 276.118 C 218.706 281.675,194.330 286.498,183.800 285.929 L 181.400 285.800 181.099 283.200 C 179.883 272.691,176.394 261.955,172.843 257.800 C 172.467 257.360,171.650 256.236,171.027 255.303 C 170.404 254.369,168.453 252.064,166.690 250.180 C 162.907 246.137,162.892 246.180,168.431 245.364 C 177.659 244.006,185.071 240.688,189.800 235.798 C 191.560 233.978,193.720 232.127,194.600 231.685 C 195.480 231.242,198.355 229.439,200.988 227.678 L 205.776 224.476 208.188 226.711 C 214.214 232.292,227.774 238.802,239.638 241.810 C 257.015 246.215,274.441 243.882,283.328 235.961 C 288.467 231.381,288.279 229.605,282.729 230.307 C 271.936 231.674,260.971 222.547,256.011 208.068 C 254.111 202.518,253.789 202.320,248.600 203.498 C 239.947 205.462,223.840 213.462,217.113 219.137 C 216.005 220.072,210.199 222.507,207.700 223.085 C 206.182 223.436,206.682 222.486,208.900 220.803 C 220.395 212.084,222.343 210.766,225.400 209.638 C 230.671 207.694,236.224 203.660,244.137 196.029 C 258.473 182.204,266.801 171.810,275.410 157.000 C 278.801 151.166,279.287 150.226,281.298 145.597 C 284.781 137.581,285.341 136.192,285.654 134.800 C 285.827 134.030,286.703 130.700,287.601 127.400 C 291.693 112.353,292.375 89.840,289.025 80.450 C 287.508 76.199,287.737 76.518,293.937 87.275 M279.837 82.966 C 282.480 87.324,282.488 87.573,280.046 89.366 C 277.619 91.148,277.231 91.146,276.065 89.347 C 274.719 87.270,274.552 84.292,275.622 81.432 C 276.744 78.435,277.186 78.596,279.837 82.966 M268.800 87.544 C 268.800 88.429,265.858 96.628,264.415 99.768 C 263.527 101.700,262.800 103.505,262.800 103.780 C 262.800 104.055,261.778 105.972,260.529 108.040 C 259.280 110.108,257.818 113.060,257.281 114.600 C 256.309 117.388,255.107 119.112,250.956 123.676 C 249.818 124.928,248.322 127.081,247.633 128.460 C 246.581 130.566,244.735 132.590,236.090 141.116 C 225.464 151.596,224.454 152.491,216.925 158.079 C 207.969 164.726,202.868 172.870,206.403 174.881 C 207.916 175.743,207.932 176.415,206.496 178.771 C 206.438 178.865,206.033 178.557,205.594 178.086 C 204.053 176.432,197.908 175.738,193.626 176.735 C 190.516 177.459,189.926 176.526,189.246 169.815 C 188.803 165.449,188.570 165.214,183.479 164.010 C 180.137 163.219,178.926 163.118,175.279 163.326 C 167.145 163.790,165.641 165.218,171.253 167.149 C 179.007 169.817,181.422 172.381,185.384 182.149 C 187.149 186.502,188.100 188.337,188.897 188.933 L 189.990 189.749 195.695 188.872 C 198.833 188.391,201.913 187.997,202.540 187.998 C 203.300 187.999,204.065 187.587,204.840 186.758 L 206.000 185.515 206.000 186.562 C 206.000 187.973,207.032 188.776,210.702 190.216 L 213.800 191.432 213.800 197.616 C 213.800 204.605,213.954 205.318,215.608 206.003 C 216.862 206.523,216.857 207.200,215.599 207.200 C 215.185 207.200,214.581 207.578,214.258 208.039 L 213.670 208.878 213.161 207.939 C 212.853 207.369,212.558 204.643,212.411 201.000 C 212.109 193.504,211.076 191.203,208.011 191.199 C 207.455 191.198,206.411 190.838,205.690 190.399 C 204.181 189.478,202.058 189.385,197.977 190.059 C 193.193 190.849,193.334 191.876,198.580 194.462 C 207.053 198.639,210.162 207.061,206.196 215.087 C 204.343 218.837,204.050 218.599,205.371 214.417 C 208.462 204.630,203.668 197.045,191.437 192.373 C 187.304 190.794,187.222 190.701,185.041 185.078 C 179.146 169.882,170.325 164.353,158.402 168.383 C 155.873 169.238,153.716 169.849,153.608 169.741 C 152.856 168.989,160.009 165.747,163.742 165.148 C 165.379 164.885,166.534 164.439,167.200 163.814 C 168.680 162.423,177.776 161.206,181.115 161.951 C 185.012 162.821,186.745 162.944,187.404 162.396 C 187.904 161.982,188.147 162.009,188.739 162.545 C 189.846 163.547,189.953 163.476,193.800 159.171 C 196.896 155.706,197.846 154.916,200.583 153.525 C 202.334 152.635,204.944 151.149,206.383 150.222 C 207.822 149.295,210.296 147.783,211.880 146.862 C 213.464 145.941,214.871 145.008,215.007 144.788 C 215.143 144.568,216.007 144.006,216.927 143.539 C 217.847 143.072,220.465 141.442,222.744 139.918 C 225.022 138.394,227.272 136.999,227.744 136.818 C 228.981 136.342,238.453 129.690,239.400 128.632 C 239.840 128.141,241.280 126.913,242.600 125.905 C 246.457 122.959,250.616 118.285,252.308 114.992 C 252.758 114.116,253.700 112.860,254.400 112.200 C 255.100 111.540,256.043 110.280,256.494 109.400 C 256.945 108.520,258.156 106.540,259.185 105.000 C 261.962 100.843,264.261 96.103,265.198 92.606 C 266.263 88.633,267.008 87.200,268.010 87.200 C 268.445 87.200,268.800 87.355,268.800 87.544 M272.217 89.253 C 272.347 89.664,272.783 90.000,273.184 90.000 C 274.766 90.000,274.472 91.298,272.455 93.222 C 271.369 94.258,270.172 95.577,269.794 96.153 C 269.038 97.307,267.707 97.544,267.341 96.589 C 267.094 95.946,269.380 88.565,270.097 87.690 C 270.589 87.089,271.817 87.994,272.217 89.253 M289.663 89.300 C 290.197 90.277,290.665 99.532,290.237 100.647 C 289.804 101.777,288.116 99.812,286.512 96.308 C 284.789 92.547,283.567 93.121,285.053 96.994 C 285.308 97.658,282.527 99.624,281.752 99.326 C 281.106 99.078,278.800 94.420,278.800 93.362 C 278.800 90.881,282.757 89.183,283.807 91.213 C 284.418 92.395,285.200 92.504,285.200 91.407 C 285.200 89.266,288.734 87.598,289.663 89.300 M263.991 93.500 C 263.979 94.444,262.600 97.429,262.007 97.796 C 260.401 98.788,260.173 95.098,261.756 93.737 C 263.046 92.627,264.003 92.525,263.991 93.500 M276.767 95.154 C 279.599 99.131,279.551 100.333,276.494 101.989 C 273.636 103.537,272.918 103.436,271.474 101.282 C 270.025 99.120,270.223 98.156,272.603 95.776 C 274.674 93.705,275.633 93.561,276.767 95.154 M258.957 95.833 C 259.494 97.231,259.108 98.099,257.100 100.007 C 255.088 101.919,253.667 102.421,253.313 101.344 C 253.155 100.865,257.839 95.200,258.393 95.200 C 258.570 95.200,258.824 95.485,258.957 95.833 M154.221 100.745 C 150.162 106.866,148.780 109.716,147.407 114.800 C 146.843 116.890,145.656 120.807,144.769 123.504 C 141.479 133.513,141.874 150.432,145.633 160.488 C 146.831 163.691,147.202 163.909,149.336 162.659 C 152.798 160.630,174.652 139.572,177.740 135.290 C 182.748 128.344,182.704 121.234,177.619 115.858 C 175.627 113.752,174.592 113.163,168.646 110.757 C 163.416 108.640,161.130 105.667,159.802 99.256 C 158.761 94.227,158.497 94.297,154.221 100.745 M158.623 98.300 C 160.457 106.775,162.809 109.572,170.660 112.612 C 180.529 116.435,183.411 124.981,177.803 133.800 C 174.531 138.946,150.033 162.399,147.929 162.400 C 146.286 162.400,144.249 153.812,143.569 144.017 C 142.860 133.815,143.191 130.862,145.964 122.600 C 146.629 120.620,147.636 117.290,148.203 115.200 C 149.519 110.349,150.931 107.335,154.517 101.732 C 157.518 97.044,158.223 96.454,158.623 98.300 M267.652 99.900 C 268.203 100.505,269.002 101.520,269.427 102.156 C 269.852 102.792,270.376 103.551,270.590 103.844 C 271.067 104.494,268.620 107.200,267.555 107.200 C 267.177 107.200,266.108 106.492,265.180 105.626 L 263.492 104.053 264.175 102.326 C 265.643 98.616,266.156 98.258,267.652 99.900 M260.062 101.879 C 259.089 103.785,258.215 104.568,257.405 104.257 C 256.068 103.744,257.446 100.743,259.355 100.008 C 260.682 99.498,260.935 100.168,260.062 101.879 M288.467 101.500 C 290.378 102.504,290.385 102.530,290.142 107.594 C 289.757 115.586,287.283 114.674,284.439 105.492 C 283.565 102.670,283.416 101.518,283.867 101.067 C 284.385 100.548,287.153 100.809,288.467 101.500 M280.919 103.111 C 285.008 107.629,284.084 113.802,279.294 113.969 C 277.846 114.019,275.281 106.029,276.250 104.492 C 277.284 102.854,279.968 102.060,280.919 103.111 M253.900 103.596 C 255.670 104.675,255.593 104.813,252.408 106.295 C 247.975 108.356,246.396 107.457,249.283 104.515 C 251.160 102.603,251.998 102.436,253.900 103.596 M273.521 106.505 C 275.992 109.482,275.937 113.107,273.400 114.491 C 269.938 116.379,269.364 115.953,268.567 110.904 C 268.141 108.207,272.052 104.735,273.521 106.505 M264.190 107.580 C 264.525 108.229,264.800 109.010,264.800 109.316 C 264.800 109.622,265.353 110.979,266.029 112.331 C 267.603 115.481,267.484 116.368,265.400 117.006 C 264.520 117.276,263.260 117.789,262.600 118.146 C 261.120 118.946,260.662 118.956,259.231 118.216 C 257.134 117.132,257.580 114.529,260.765 109.259 C 262.665 106.114,263.277 105.814,264.190 107.580 M255.812 108.300 C 255.424 109.856,253.695 112.000,252.829 112.000 C 250.540 112.000,250.976 109.359,253.483 108.036 C 255.636 106.900,256.147 106.958,255.812 108.300 M248.000 108.526 C 251.080 110.031,250.579 112.998,247.249 112.969 C 245.387 112.953,242.000 111.439,242.000 110.623 C 242.000 110.103,245.371 107.581,246.000 107.631 C 246.110 107.640,247.010 108.043,248.000 108.526 M242.802 113.033 C 245.696 114.729,245.885 115.726,243.551 116.976 L 242.102 117.752 238.551 116.576 C 234.328 115.177,234.157 114.719,237.200 112.951 C 239.990 111.332,239.897 111.330,242.802 113.033 M287.965 114.314 L 289.299 115.428 288.883 118.546 C 288.415 122.047,287.643 123.301,286.144 122.994 C 285.625 122.887,284.763 122.710,284.229 122.600 C 283.116 122.370,281.600 118.942,281.600 116.655 C 281.600 113.647,285.464 112.226,287.965 114.314 M251.106 115.116 C 250.240 118.427,245.929 122.287,244.775 120.786 C 243.801 119.518,243.813 119.340,244.937 118.282 C 248.440 114.983,251.559 113.382,251.106 115.116 M278.760 117.078 C 282.199 121.250,281.812 127.233,278.106 127.177 C 274.145 127.118,272.763 125.087,272.286 118.628 C 272.072 115.723,276.725 114.609,278.760 117.078 M234.324 117.140 C 234.832 117.283,235.282 117.565,235.324 117.768 C 235.538 118.800,227.771 121.258,226.201 120.656 C 223.256 119.525,230.957 116.192,234.324 117.140 M268.797 118.798 C 270.613 119.770,271.874 126.070,270.500 127.305 C 269.732 127.995,265.024 128.986,264.386 128.592 C 263.818 128.240,262.967 126.068,262.446 123.638 C 261.778 120.525,262.515 119.620,266.400 118.791 C 267.170 118.627,267.857 118.471,267.926 118.446 C 267.996 118.421,268.388 118.579,268.797 118.798 M258.681 121.201 C 260.088 123.527,261.799 128.554,261.403 129.195 C 260.404 130.811,250.129 132.069,248.561 130.767 C 247.447 129.843,249.064 126.560,251.994 123.800 C 252.694 123.140,253.904 121.736,254.683 120.680 C 256.430 118.309,256.975 118.380,258.681 121.201 M161.352 119.926 C 159.132 121.407,156.502 144.262,158.340 146.100 C 159.377 147.137,160.385 142.920,160.394 137.511 C 160.398 135.178,160.800 131.342,161.400 127.921 C 162.687 120.585,162.678 119.042,161.352 119.926 M240.434 120.057 C 245.695 121.634,244.238 126.103,238.449 126.144 C 234.260 126.174,231.691 124.314,232.610 121.917 C 233.251 120.248,237.611 119.212,240.434 120.057 M166.480 121.476 C 165.825 122.746,164.076 130.450,163.422 134.946 C 163.074 137.337,162.702 139.436,162.594 139.610 C 162.287 140.106,162.830 141.200,163.382 141.200 C 163.655 141.200,164.220 140.435,164.637 139.500 C 165.054 138.565,166.550 136.270,167.961 134.400 C 172.151 128.845,173.535 126.400,172.490 126.400 C 172.320 126.400,171.420 127.445,170.489 128.722 C 169.559 130.000,168.145 131.665,167.347 132.422 L 165.896 133.800 166.140 131.600 C 166.275 130.390,166.777 127.960,167.255 126.200 C 167.734 124.440,168.142 122.555,168.163 122.011 C 168.208 120.803,167.022 120.426,166.480 121.476 M224.224 121.769 C 225.548 122.740,222.463 125.161,219.874 125.183 C 215.895 125.218,215.321 123.805,218.700 122.299 C 221.338 121.123,223.110 120.953,224.224 121.769 M230.971 122.229 C 232.409 123.666,231.562 124.801,229.057 124.794 C 225.764 124.784,225.461 124.247,227.754 122.486 C 229.114 121.442,230.105 121.362,230.971 122.229 M286.960 126.039 C 286.938 126.830,286.626 128.067,286.266 128.787 C 285.907 129.508,285.715 130.263,285.840 130.466 C 285.966 130.668,285.784 131.681,285.438 132.717 C 285.091 133.753,284.523 135.500,284.175 136.600 C 283.453 138.883,282.594 140.000,281.562 140.000 C 280.414 140.000,280.339 139.459,280.848 134.910 C 281.408 129.901,281.569 129.600,283.682 129.600 C 285.481 129.600,285.657 128.686,283.898 128.476 C 280.826 128.111,281.967 124.278,285.089 124.478 L 287.000 124.600 286.960 126.039 M215.360 125.724 C 216.026 126.819,214.041 128.413,212.078 128.360 C 208.152 128.254,207.486 127.193,210.466 125.792 C 212.858 124.667,214.701 124.641,215.360 125.724 M152.653 126.434 C 152.060 129.398,153.273 149.007,154.100 149.834 C 155.147 150.880,155.652 149.513,155.478 146.102 C 154.605 128.959,153.578 121.811,152.653 126.434 M221.107 127.534 C 221.698 127.909,222.476 130.354,222.165 130.857 C 221.617 131.743,216.400 130.274,216.400 129.234 C 216.400 128.781,217.627 128.050,219.177 127.579 C 220.542 127.165,220.526 127.165,221.107 127.534 M230.000 127.591 C 231.760 127.844,232.803 128.216,233.230 128.741 C 233.847 129.500,233.870 129.500,234.333 128.758 C 234.863 127.910,236.974 127.711,237.440 128.465 C 237.768 128.995,236.224 130.400,235.313 130.400 C 234.984 130.400,234.358 130.855,233.920 131.410 C 232.824 132.804,228.623 135.600,227.624 135.600 C 225.800 135.600,223.119 129.350,224.196 127.607 C 224.506 127.104,226.584 127.099,230.000 127.591 M206.026 128.814 C 207.418 129.559,205.170 132.400,203.190 132.400 C 202.257 132.400,200.333 130.832,200.646 130.326 C 201.391 129.120,204.805 128.161,206.026 128.814 M277.956 129.500 C 279.132 130.474,279.311 136.849,278.209 138.530 C 276.451 141.213,274.561 140.242,274.208 136.475 C 274.070 135.004,273.768 132.941,273.537 131.892 C 272.891 128.963,275.563 127.517,277.956 129.500 M270.653 131.383 C 272.152 133.057,272.917 139.306,271.700 139.931 C 270.765 140.411,265.294 140.882,265.076 140.501 C 264.702 139.849,264.411 131.767,264.743 131.260 C 265.691 129.812,269.314 129.888,270.653 131.383 M211.911 131.423 C 212.871 132.095,213.232 135.686,212.391 136.206 C 211.093 137.008,205.375 133.968,205.997 132.805 C 206.962 131.003,210.223 130.241,211.911 131.423 M199.981 132.245 C 201.254 133.317,201.123 134.400,199.719 134.400 C 199.398 134.400,197.880 135.030,196.346 135.800 C 193.183 137.387,192.437 137.490,191.247 136.500 C 190.092 135.540,190.453 135.158,194.512 133.035 C 198.632 130.880,198.398 130.913,199.981 132.245 M220.276 133.460 C 221.858 134.270,223.658 135.353,224.276 135.868 L 225.400 136.804 224.000 138.016 C 217.228 143.876,214.078 143.378,214.322 136.484 C 214.503 131.371,215.352 130.940,220.276 133.460 M261.923 132.700 C 263.030 134.908,263.320 139.335,262.406 140.076 C 260.969 141.239,255.822 141.116,255.039 139.900 C 253.274 137.160,254.044 134.522,256.812 133.825 C 257.809 133.574,259.064 133.060,259.601 132.684 C 260.843 131.814,261.481 131.819,261.923 132.700 M249.600 133.455 C 251.967 133.783,252.256 134.065,252.533 136.307 C 252.662 137.348,252.868 138.650,252.993 139.200 C 253.454 141.241,251.646 141.901,245.400 141.974 C 242.670 142.006,238.800 140.780,238.800 139.884 C 238.800 138.709,245.464 132.844,246.600 133.020 C 247.260 133.123,248.610 133.318,249.600 133.455 M148.678 134.255 C 147.731 135.203,149.443 149.065,150.827 151.651 C 152.349 154.494,152.326 150.993,150.765 142.066 C 149.527 134.985,149.194 133.739,148.678 134.255 M204.008 135.804 C 207.285 137.499,206.580 145.036,203.242 143.992 C 202.669 143.813,201.700 143.557,201.090 143.423 C 196.071 142.323,195.654 137.296,200.457 135.797 C 202.704 135.096,202.639 135.096,204.008 135.804 M189.669 137.062 C 190.882 138.160,190.518 138.778,187.938 139.998 C 183.728 141.990,182.408 140.257,186.287 137.831 C 188.949 136.166,188.733 136.215,189.669 137.062 M210.534 138.443 C 211.638 138.946,214.226 143.711,213.784 144.426 C 213.336 145.151,209.909 147.200,209.144 147.200 C 207.790 147.200,207.240 145.721,207.453 142.650 C 207.795 137.711,208.079 137.324,210.534 138.443 M193.313 140.948 C 194.021 141.250,195.026 141.959,195.547 142.525 L 196.495 143.552 195.647 145.302 C 195.181 146.265,194.800 147.334,194.800 147.677 C 194.800 148.921,193.878 149.200,191.172 148.774 C 187.076 148.130,186.946 148.025,186.241 144.765 C 185.692 142.224,190.375 139.697,193.313 140.948 M183.359 141.436 C 183.691 142.304,183.368 142.719,181.873 143.344 C 181.173 143.637,179.713 144.738,178.630 145.792 C 176.630 147.736,175.593 147.893,175.279 146.301 C 174.982 144.793,182.832 140.065,183.359 141.436 M281.804 142.006 C 282.338 142.870,277.250 152.540,276.562 151.969 C 276.057 151.549,275.983 150.935,276.183 148.824 C 276.320 147.381,276.255 145.605,276.038 144.877 C 275.820 144.149,275.737 143.309,275.852 143.010 C 276.240 141.997,281.273 141.148,281.804 142.006 M239.000 143.010 C 239.880 143.552,241.185 143.997,241.900 143.998 C 243.957 144.001,244.653 145.038,244.986 148.590 C 245.353 152.505,245.255 152.604,241.005 152.586 C 237.281 152.571,236.470 152.165,235.580 149.871 C 235.308 149.172,234.632 147.917,234.077 147.083 L 233.067 145.566 234.817 143.783 C 236.844 141.717,236.887 141.709,239.000 143.010 M271.485 142.420 C 272.733 142.855,273.594 144.192,273.608 145.719 C 273.613 146.203,273.864 147.770,274.166 149.200 C 274.880 152.579,274.745 152.708,270.706 152.491 C 266.393 152.260,266.184 152.049,266.256 147.986 C 266.355 142.380,267.593 141.063,271.485 142.420 M263.481 143.310 C 264.666 144.495,265.536 150.201,264.700 151.311 C 264.203 151.972,258.581 153.114,258.116 152.649 C 257.835 152.368,256.819 146.176,256.808 144.681 C 256.793 142.645,261.790 141.618,263.481 143.310 M253.738 144.195 C 254.562 145.019,255.626 148.384,255.721 150.466 L 255.800 152.200 251.633 152.315 C 248.568 152.399,247.379 152.293,247.139 151.915 C 246.553 150.992,246.748 145.852,247.404 144.915 C 248.300 143.637,252.681 143.139,253.738 144.195 M184.411 145.220 C 185.535 147.320,184.830 148.190,181.900 148.318 C 178.819 148.453,178.474 148.024,180.300 146.328 C 182.501 144.285,183.733 143.953,184.411 145.220 M201.227 145.434 C 208.438 147.539,208.310 148.504,200.259 152.734 C 197.711 154.072,196.119 152.269,196.485 148.459 C 196.819 144.980,197.715 144.409,201.227 145.434 M174.469 147.862 C 175.739 149.012,175.314 149.771,172.308 151.723 C 167.413 154.899,166.535 152.590,171.219 148.860 C 173.612 146.955,173.503 146.989,174.469 147.862 M232.820 148.839 C 234.060 151.269,233.748 151.600,230.213 151.600 C 226.661 151.600,226.653 151.583,229.085 149.114 C 231.383 146.781,231.756 146.753,232.820 148.839 M185.184 150.792 C 186.329 151.404,186.800 153.392,186.800 157.617 C 186.800 162.422,186.667 162.488,180.392 160.798 C 177.661 160.063,176.039 154.322,177.910 152.012 C 179.002 150.663,183.526 149.904,185.184 150.792 M191.592 151.236 C 196.677 152.326,197.109 154.407,193.140 158.704 C 189.118 163.059,188.922 162.951,188.371 156.062 C 187.933 150.584,188.010 150.468,191.592 151.236 M175.016 154.300 C 175.143 154.905,175.566 156.438,175.957 157.707 C 176.800 160.447,176.760 160.496,173.154 161.133 C 168.279 161.994,168.000 161.855,168.000 158.566 C 168.000 155.415,174.429 151.506,175.016 154.300 M225.205 162.594 C 224.860 163.010,224.076 163.093,222.072 162.928 C 220.226 162.775,218.561 162.918,216.686 163.390 C 213.917 164.088,212.800 163.868,212.800 162.626 C 212.800 162.181,216.269 159.438,222.400 155.034 L 225.000 153.166 225.332 157.603 C 225.572 160.798,225.536 162.195,225.205 162.594 M234.409 153.605 C 234.827 153.828,235.250 154.590,235.355 155.305 C 235.459 156.017,235.754 157.910,236.010 159.512 C 236.693 163.773,236.207 164.400,232.219 164.400 C 228.355 164.400,228.000 164.057,228.000 160.318 C 228.000 158.764,227.796 156.810,227.546 155.976 C 226.804 153.501,227.137 153.200,230.614 153.200 C 232.285 153.200,233.993 153.382,234.409 153.605 M166.578 153.964 C 167.029 154.694,166.270 155.597,163.068 158.142 C 158.818 161.519,156.925 163.485,157.434 163.994 C 157.692 164.252,158.359 164.010,159.366 163.294 C 161.493 161.782,167.271 161.868,166.007 163.392 C 165.769 163.679,164.728 164.040,163.694 164.195 C 159.692 164.795,153.750 167.588,152.538 169.439 C 151.356 171.243,152.351 171.350,156.639 169.879 C 163.386 167.564,164.149 167.459,167.657 168.360 C 176.145 170.540,180.250 174.789,184.397 185.690 C 186.445 191.072,186.977 191.727,190.157 192.786 C 204.522 197.568,208.656 206.334,202.413 218.774 C 200.165 223.254,200.183 223.200,200.963 223.200 C 201.988 223.200,205.183 219.156,206.905 215.679 C 211.001 207.407,207.839 198.245,199.401 193.935 C 197.532 192.981,196.003 192.061,196.002 191.890 C 195.994 190.575,203.300 189.986,205.207 191.148 C 205.973 191.615,207.085 191.998,207.678 191.999 C 210.435 192.002,211.593 194.922,211.598 201.880 C 211.602 208.436,212.739 210.974,214.791 209.008 C 215.953 207.895,221.721 207.577,222.701 208.572 C 223.108 208.986,219.928 211.713,214.400 215.690 C 211.870 217.511,208.472 220.326,206.848 221.947 C 204.173 224.617,197.219 229.572,193.600 231.386 C 192.830 231.772,190.907 233.480,189.326 235.181 C 184.890 239.954,178.428 242.883,168.927 244.427 C 161.310 245.665,161.278 245.740,166.153 250.796 C 167.997 252.709,170.012 255.067,170.631 256.037 C 171.250 257.007,172.069 258.160,172.452 258.600 C 175.534 262.145,181.631 281.200,179.683 281.200 C 179.352 281.200,178.570 278.959,177.239 274.200 C 173.300 260.120,160.780 246.525,155.608 250.713 L 154.727 251.426 157.749 253.906 C 166.643 261.206,170.751 272.078,170.782 288.400 C 170.791 293.056,170.124 293.167,169.836 288.556 C 169.528 283.611,168.962 279.832,167.971 276.096 C 167.547 274.498,167.200 272.796,167.200 272.314 C 167.200 266.177,154.247 253.041,149.000 253.856 C 140.088 255.241,133.298 251.910,126.277 242.706 C 118.824 232.937,117.263 224.584,121.782 218.660 C 122.342 217.925,122.800 216.864,122.800 216.302 C 122.800 213.852,116.093 207.103,112.344 205.780 C 111.392 205.444,110.197 204.897,109.689 204.564 C 107.335 203.022,102.995 202.405,93.939 202.324 C 89.132 202.281,85.000 202.123,84.756 201.973 C 82.426 200.533,102.348 200.173,108.200 201.549 C 113.615 202.823,118.953 205.627,123.104 209.380 C 126.347 212.311,127.391 211.146,125.385 206.836 C 122.097 199.773,112.001 193.532,101.273 191.931 C 98.250 191.480,97.929 190.952,100.435 190.554 C 102.516 190.222,112.135 192.857,116.096 194.844 C 120.071 196.838,121.651 198.007,125.658 201.915 C 128.772 204.952,129.600 205.236,129.600 203.268 C 129.600 196.171,135.237 185.679,144.958 174.684 C 148.941 170.178,152.973 165.573,153.919 164.450 C 157.885 159.738,165.995 153.021,166.578 153.964 M265.290 154.876 C 266.313 156.044,266.795 158.224,266.798 161.690 C 266.801 165.653,266.256 166.054,261.398 165.659 L 258.200 165.400 258.309 160.816 C 258.385 157.592,258.593 155.964,259.011 155.327 C 260.151 153.587,263.925 153.316,265.290 154.876 M275.340 154.805 C 275.693 155.132,274.664 157.078,271.708 161.681 C 269.965 164.395,269.333 165.067,268.917 164.650 C 268.449 164.182,268.476 155.144,268.945 155.013 C 271.996 154.160,274.555 154.077,275.340 154.805 M244.400 155.578 C 245.617 156.453,245.923 162.847,244.812 164.186 C 244.173 164.955,241.175 164.901,239.151 164.082 C 237.906 163.579,237.638 155.544,238.839 154.754 C 239.660 154.214,243.241 154.745,244.400 155.578 M255.600 155.842 C 256.243 156.471,256.483 163.111,255.913 164.500 C 255.578 165.314,249.772 165.534,248.374 164.786 C 247.161 164.137,247.219 156.781,248.447 155.553 C 249.447 154.553,254.490 154.756,255.600 155.842 M166.200 159.633 C 166.200 160.332,165.950 160.636,165.298 160.728 C 164.091 160.899,163.659 159.744,164.650 158.994 C 165.654 158.235,166.200 158.460,166.200 159.633 M184.400 165.223 C 187.916 166.217,188.400 166.705,188.400 169.257 C 188.400 171.592,189.096 175.005,189.888 176.555 L 190.478 177.711 193.539 177.371 C 203.455 176.272,205.754 177.492,205.010 183.455 C 204.605 186.703,204.600 186.706,197.055 187.833 C 188.688 189.083,189.228 189.346,186.630 182.750 C 182.456 172.155,180.286 169.829,171.039 166.038 C 166.540 164.193,178.233 163.480,184.400 165.223 M212.755 165.752 C 214.464 167.571,215.339 172.530,214.391 175.024 C 213.647 176.981,206.404 175.062,206.068 172.819 C 205.788 170.945,209.689 164.800,211.159 164.800 C 211.545 164.800,212.263 165.228,212.755 165.752 M223.720 166.256 C 225.516 167.176,225.561 167.320,225.344 171.374 C 225.025 177.332,225.360 176.901,221.168 176.739 C 217.032 176.579,216.820 176.418,216.797 173.400 C 216.782 171.515,216.479 169.706,215.848 167.742 C 215.185 165.677,220.596 164.656,223.720 166.256 M231.462 167.000 C 232.251 167.330,233.409 167.600,234.035 167.600 C 235.662 167.600,236.000 168.557,236.000 173.164 C 236.000 178.237,235.643 178.610,231.215 178.174 C 227.638 177.822,227.605 177.759,228.060 172.028 C 228.518 166.241,228.767 165.874,231.462 167.000 M244.523 168.484 C 245.488 169.777,245.188 177.555,244.132 178.611 C 243.451 179.292,240.194 179.406,238.611 178.804 L 237.569 178.408 237.791 173.131 C 238.043 167.120,237.883 167.529,240.107 167.208 C 242.372 166.881,243.589 167.233,244.523 168.484 M254.895 167.220 C 256.980 167.799,258.563 173.104,257.794 176.936 C 257.181 179.990,256.742 180.321,254.529 179.396 C 253.744 179.068,251.900 178.800,250.431 178.800 C 246.898 178.800,246.800 178.664,246.800 173.774 C 246.800 167.504,249.129 165.618,254.895 167.220 M267.600 167.706 C 267.600 168.488,260.349 178.000,259.753 178.000 C 259.341 178.000,259.244 176.970,259.313 173.301 L 259.400 168.603 261.200 168.285 C 262.190 168.110,263.630 167.817,264.400 167.634 C 266.540 167.125,267.600 167.149,267.600 167.706 M214.091 180.177 C 214.605 181.095,214.072 188.549,213.429 189.428 C 212.803 190.284,208.243 188.771,207.417 187.434 C 206.848 186.513,207.333 179.404,208.021 178.575 C 208.543 177.945,213.587 179.276,214.091 180.177 M222.660 180.157 C 224.977 180.749,225.383 182.022,224.829 186.964 C 224.385 190.923,224.533 190.800,220.225 190.800 C 215.620 190.800,215.250 190.520,215.936 187.551 C 216.191 186.444,216.400 184.397,216.400 183.002 C 216.400 178.792,216.726 178.644,222.660 180.157 M233.915 181.066 C 235.230 181.888,234.865 190.526,233.464 191.741 C 231.406 193.526,227.062 191.850,226.870 189.197 C 226.714 187.034,227.516 181.188,228.059 180.531 C 228.566 179.917,232.679 180.293,233.915 181.066 M244.507 181.420 C 245.320 181.732,245.522 182.913,245.718 188.498 L 245.869 192.795 241.834 192.572 C 235.751 192.236,235.999 192.350,236.008 189.892 C 236.017 187.580,236.914 181.986,237.403 181.195 C 237.721 180.680,243.017 180.848,244.507 181.420 M143.754 182.067 C 138.298 186.167,136.529 191.158,138.750 196.181 C 141.729 202.914,149.361 198.024,150.614 188.581 C 151.360 182.954,147.478 179.269,143.754 182.067 M256.291 181.872 C 256.490 182.471,248.900 190.800,248.155 190.800 C 247.571 190.800,247.312 183.217,247.848 181.819 C 248.158 181.012,256.022 181.061,256.291 181.872 M148.572 182.935 C 152.027 186.390,148.015 198.351,143.389 198.387 C 140.326 198.411,138.800 196.287,138.800 192.000 C 138.800 185.781,145.346 179.709,148.572 182.935 M221.101 193.461 C 224.446 194.652,223.388 204.700,219.848 205.365 C 215.520 206.177,214.589 204.872,214.894 198.425 C 215.196 192.058,215.801 191.574,221.101 193.461 M230.285 194.453 C 233.563 195.661,233.471 195.498,233.500 200.179 L 233.526 204.364 231.545 205.635 C 229.635 206.861,229.518 206.885,228.282 206.298 C 227.577 205.963,226.325 205.402,225.500 205.051 C 223.714 204.291,223.627 203.661,224.795 199.936 C 225.232 198.541,225.592 196.893,225.595 196.274 C 225.608 193.503,226.630 193.106,230.285 194.453 M243.547 194.358 C 244.374 194.883,243.797 195.601,239.672 199.181 C 235.323 202.954,235.253 202.950,235.368 198.948 C 235.478 195.158,236.205 194.445,239.629 194.767 C 239.976 194.800,240.696 194.652,241.229 194.439 C 242.466 193.945,242.871 193.931,243.547 194.358 M255.226 208.459 C 257.852 216.239,261.888 222.060,267.665 226.397 C 273.914 231.090,276.423 231.788,284.561 231.098 C 286.559 230.929,286.213 231.961,283.326 234.786 C 270.179 247.650,235.477 245.031,212.800 229.463 C 207.230 225.639,206.715 224.429,210.100 223.113 C 216.622 220.575,216.674 220.588,219.058 225.318 C 220.315 227.812,221.291 228.843,221.857 228.276 C 222.157 227.977,218.947 221.420,218.195 220.796 C 217.176 219.950,217.461 219.664,222.769 216.205 C 233.279 209.357,246.238 203.924,251.594 204.120 L 253.788 204.200 255.226 208.459 M243.555 211.778 C 243.457 211.876,241.942 212.252,240.188 212.614 C 234.629 213.761,221.600 218.276,221.600 219.056 C 221.600 219.511,225.377 218.717,228.173 217.675 C 229.728 217.094,234.137 215.709,237.972 214.595 C 241.806 213.482,245.016 212.352,245.105 212.085 C 245.255 211.635,243.956 211.378,243.555 211.778 M230.898 218.683 C 230.621 218.785,230.497 219.033,230.621 219.234 C 231.071 219.962,238.400 219.508,238.400 218.752 C 238.400 218.404,231.817 218.343,230.898 218.683 M222.100 221.065 C 221.121 221.460,221.622 222.000,222.967 222.000 C 224.834 222.000,225.847 221.603,225.134 221.150 C 224.557 220.785,222.908 220.739,222.100 221.065 M226.629 221.133 C 225.454 221.632,226.486 221.901,231.496 222.403 C 233.863 222.639,236.351 222.982,237.025 223.164 C 239.123 223.730,248.400 222.789,248.400 222.011 C 248.400 221.384,246.026 221.141,241.198 221.274 C 238.669 221.343,234.530 221.266,232.000 221.103 C 229.470 220.939,227.053 220.953,226.629 221.133 M123.867 223.467 C 122.587 224.747,124.367 230.175,127.810 235.489 C 133.145 243.722,144.957 252.471,147.369 249.976 C 147.872 249.456,147.797 249.394,142.407 245.900 C 135.004 241.102,128.126 232.413,125.624 224.700 C 125.172 223.305,124.500 222.833,123.867 223.467 M227.200 223.992 C 227.200 224.208,227.695 224.500,228.300 224.641 C 228.905 224.782,232.168 225.594,235.551 226.446 C 243.312 228.401,252.251 230.143,253.015 229.849 C 254.895 229.128,251.953 228.040,243.200 226.221 C 240.450 225.650,237.570 225.008,236.800 224.796 C 232.841 223.705,227.200 223.232,227.200 223.992 M225.962 225.761 C 229.354 229.218,246.972 235.600,253.122 235.600 C 256.591 235.600,254.157 234.479,244.400 231.584 C 236.208 229.153,229.827 226.806,226.951 225.167 C 224.149 223.571,223.937 223.698,225.962 225.761 M126.331 228.500 C 129.775 235.739,134.491 241.459,140.564 245.764 C 144.613 248.635,145.274 249.459,142.339 247.979 C 134.866 244.211,125.571 233.062,124.524 226.609 C 124.171 224.435,124.622 224.907,126.331 228.500 M177.547 227.026 C 172.815 228.483,170.066 233.467,172.782 235.666 C 178.535 240.325,188.605 237.430,189.481 230.866 C 189.983 227.100,183.785 225.106,177.547 227.026 M187.241 228.113 C 191.107 230.709,186.358 237.200,180.593 237.200 C 178.019 237.200,173.778 235.789,172.996 234.673 C 169.817 230.134,181.939 224.552,187.241 228.113 M162.000 252.534 C 169.093 257.357,174.281 265.694,177.210 276.974 C 179.552 285.992,179.436 286.545,175.134 286.927 C 171.728 287.229,171.785 287.316,171.222 281.000 C 170.075 268.146,164.860 257.451,157.335 252.521 C 156.105 251.715,156.154 251.289,157.500 251.092 C 159.071 250.861,159.959 251.146,162.000 252.534 M197.761 311.207 C 174.789 314.113,163.295 327.846,165.226 350.079 C 167.132 372.036,181.793 382.406,209.600 381.467 C 233.771 380.650,246.208 370.582,247.980 350.400 C 249.502 333.061,242.422 319.898,228.600 314.369 C 221.501 311.529,206.983 310.041,197.761 311.207 M213.000 311.814 C 234.403 313.132,246.277 324.090,247.445 343.600 C 248.358 358.861,242.142 371.061,230.635 376.596 C 217.546 382.892,190.922 382.061,179.757 375.009 C 160.374 362.766,161.138 326.983,181.000 316.736 C 187.669 313.295,199.971 310.826,207.400 311.436 C 208.280 311.508,210.800 311.678,213.000 311.814 M80.847 313.344 C 80.517 313.742,80.477 318.373,80.698 330.570 C 80.864 339.745,80.863 354.485,80.696 363.326 C 80.529 372.167,80.480 379.628,80.586 379.906 C 80.737 380.302,83.218 380.389,91.890 380.306 L 103.000 380.200 103.200 373.800 C 103.435 366.294,102.934 367.341,109.144 361.373 L 114.088 356.622 114.998 357.679 C 115.498 358.261,118.567 363.206,121.818 368.668 C 125.069 374.131,127.974 379.005,128.274 379.500 L 128.818 380.400 142.786 380.400 C 150.775 380.400,156.849 380.244,156.978 380.035 C 157.103 379.834,154.662 376.459,151.555 372.535 C 139.829 357.723,129.200 343.285,129.200 342.166 C 129.200 341.698,134.565 336.035,143.100 327.493 C 154.161 316.422,156.877 313.502,156.400 313.197 C 155.752 312.781,129.303 312.632,128.246 313.038 C 127.905 313.168,126.236 315.013,124.536 317.138 C 116.516 327.161,104.258 339.841,103.595 338.800 C 103.373 338.452,103.210 333.059,103.206 325.980 C 103.202 317.016,103.072 313.632,102.720 313.280 C 101.981 312.541,81.463 312.601,80.847 313.344 M265.468 313.301 C 264.853 313.751,264.794 314.669,264.892 322.401 L 265.000 331.000 272.714 331.000 C 279.135 331.000,280.491 331.101,280.808 331.600 C 281.030 331.950,281.190 338.303,281.194 346.871 C 281.201 363.180,281.226 363.021,278.661 362.629 C 277.967 362.523,274.662 362.325,271.315 362.189 L 265.230 361.942 265.002 362.871 C 264.876 363.382,264.824 367.490,264.887 372.000 L 265.000 380.200 291.800 380.200 L 318.600 380.200 318.708 371.555 C 318.841 360.870,319.701 361.842,310.527 362.310 C 305.982 362.542,303.219 362.534,302.900 362.288 C 302.516 361.991,302.400 358.404,302.400 346.775 C 302.400 335.112,302.515 331.573,302.900 331.324 C 303.175 331.146,306.820 331.000,311.000 331.000 L 318.600 331.000 318.708 322.401 C 318.806 314.669,318.747 313.751,318.132 313.301 C 317.135 312.572,266.465 312.572,265.468 313.301 M200.156 330.189 C 191.003 331.850,187.064 336.667,187.064 346.200 C 187.064 358.266,193.528 363.223,208.595 362.710 C 221.134 362.282,226.171 357.544,226.144 346.200 C 226.113 333.324,216.275 327.262,200.156 330.189 M213.649 330.975 C 222.097 332.766,225.400 337.045,225.400 346.200 C 225.400 357.862,218.132 363.474,204.671 362.205 C 191.877 360.999,187.155 356.155,187.669 344.760 C 188.176 333.500,198.847 327.838,213.649 330.975 " stroke="none" fill="#8a2f27" fill-rule="evenodd"></path><path id="path1" d="M167.600 35.446 C 158.611 36.265,148.730 38.756,147.211 40.587 C 145.338 42.843,154.868 47.594,170.005 51.950 C 188.066 57.147,188.434 57.186,197.471 54.900 C 212.573 51.079,232.709 54.332,242.563 62.185 C 247.076 65.781,248.216 66.989,251.157 71.293 C 255.171 77.167,257.710 79.600,259.826 79.600 C 261.524 79.600,259.692 68.935,257.034 63.336 C 254.515 58.033,246.435 50.894,239.460 47.809 C 227.069 42.330,180.325 34.287,167.600 35.446 M237.300 40.448 C 235.280 41.031,235.653 41.402,240.900 44.029 C 261.532 54.362,269.888 71.874,262.121 88.502 C 260.504 91.963,260.595 92.508,262.606 91.425 C 267.899 88.575,269.508 76.113,265.937 65.637 C 265.038 62.999,265.037 62.968,265.869 63.651 C 267.651 65.113,269.516 70.441,270.192 76.000 C 271.047 83.036,271.837 85.089,272.768 82.700 C 272.961 82.205,273.587 80.697,274.159 79.350 C 275.486 76.226,275.476 76.034,273.800 72.746 C 271.566 68.362,271.930 67.252,274.668 70.100 C 277.277 72.814,278.800 75.193,278.802 76.560 C 278.804 77.784,280.870 82.251,282.479 84.511 C 283.974 86.611,289.085 87.925,289.242 86.250 C 289.881 79.470,278.247 59.408,269.131 51.568 C 259.939 43.662,244.656 38.323,237.300 40.448 M221.400 47.607 C 239.438 50.295,250.776 57.090,254.972 67.728 C 257.387 73.850,253.522 73.484,250.619 67.316 C 245.210 55.825,224.792 47.200,202.996 47.200 C 201.906 47.200,201.200 47.019,201.200 46.738 C 201.200 46.029,214.709 46.610,221.400 47.607 M275.622 81.432 C 274.552 84.292,274.719 87.270,276.065 89.347 C 277.231 91.146,277.619 91.148,280.046 89.366 C 282.488 87.573,282.480 87.324,279.837 82.966 C 277.186 78.596,276.744 78.435,275.622 81.432 M270.097 87.690 C 269.380 88.565,267.094 95.946,267.341 96.589 C 267.707 97.544,269.038 97.307,269.794 96.153 C 270.172 95.577,271.369 94.258,272.455 93.222 C 274.472 91.298,274.766 90.000,273.184 90.000 C 272.783 90.000,272.347 89.664,272.217 89.253 C 271.817 87.994,270.589 87.089,270.097 87.690 M286.236 89.631 C 285.666 90.308,285.200 91.107,285.200 91.407 C 285.200 92.504,284.418 92.395,283.807 91.213 C 282.757 89.183,278.800 90.881,278.800 93.362 C 278.800 94.420,281.106 99.078,281.752 99.326 C 282.527 99.624,285.308 97.658,285.053 96.994 C 283.567 93.121,284.789 92.547,286.512 96.308 C 289.510 102.857,290.584 102.513,290.325 95.087 C 290.090 88.347,288.783 86.603,286.236 89.631 M261.756 93.737 C 260.605 94.727,260.255 96.815,261.098 97.658 C 261.724 98.284,262.380 97.728,263.233 95.851 C 264.598 92.844,263.921 91.874,261.756 93.737 M272.603 95.776 C 270.223 98.156,270.025 99.120,271.474 101.282 C 272.918 103.436,273.636 103.537,276.494 101.989 C 279.375 100.428,279.364 100.450,278.396 98.190 C 276.410 93.558,275.289 93.090,272.603 95.776 M255.617 98.044 C 253.129 100.928,252.845 101.718,254.231 101.902 C 255.215 102.032,259.200 98.291,259.200 97.238 C 259.200 94.511,258.537 94.660,255.617 98.044 M154.517 101.732 C 150.931 107.335,149.519 110.349,148.203 115.200 C 147.636 117.290,146.629 120.620,145.964 122.600 C 143.191 130.862,142.860 133.815,143.569 144.017 C 144.249 153.812,146.286 162.400,147.929 162.400 C 150.033 162.399,174.531 138.946,177.803 133.800 C 183.411 124.981,180.529 116.435,170.660 112.612 C 162.809 109.572,160.457 106.775,158.623 98.300 C 158.223 96.454,157.518 97.044,154.517 101.732 M265.438 99.700 C 265.119 100.195,264.551 101.377,264.175 102.326 L 263.492 104.053 265.180 105.626 C 266.108 106.492,267.177 107.200,267.555 107.200 C 268.620 107.200,271.067 104.494,270.590 103.844 C 270.376 103.551,269.852 102.792,269.427 102.156 C 267.275 98.937,266.312 98.344,265.438 99.700 M259.355 100.008 C 257.446 100.743,256.068 103.744,257.405 104.257 C 258.215 104.568,259.089 103.785,260.062 101.879 C 260.935 100.168,260.682 99.498,259.355 100.008 M283.867 101.067 C 283.278 101.655,284.224 105.663,285.911 109.725 C 286.760 111.771,288.728 113.453,289.421 112.725 C 289.974 112.143,290.554 103.254,290.081 102.594 C 289.161 101.308,284.717 100.216,283.867 101.067 M278.014 103.136 C 275.899 104.271,275.772 104.716,276.555 108.256 C 277.910 114.378,278.573 114.935,282.000 112.833 C 284.214 111.476,284.365 109.943,282.654 106.205 C 280.849 102.262,280.310 101.906,278.014 103.136 M249.283 104.515 C 246.396 107.457,247.975 108.356,252.408 106.295 C 255.593 104.813,255.670 104.675,253.900 103.596 C 251.998 102.436,251.160 102.603,249.283 104.515 M269.902 107.604 C 268.394 109.112,268.315 109.307,268.567 110.904 C 269.364 115.953,269.938 116.379,273.400 114.491 C 275.797 113.183,275.987 112.480,274.798 109.303 C 273.331 105.382,272.435 105.071,269.902 107.604 M260.765 109.259 C 257.580 114.529,257.134 117.132,259.231 118.216 C 260.662 118.956,261.120 118.946,262.600 118.146 C 263.260 117.789,264.520 117.276,265.400 117.006 C 267.484 116.368,267.603 115.481,266.029 112.331 C 265.353 110.979,264.800 109.622,264.800 109.316 C 264.800 105.914,262.802 105.886,260.765 109.259 M253.483 108.036 C 250.976 109.359,250.540 112.000,252.829 112.000 C 253.695 112.000,255.424 109.856,255.812 108.300 C 256.147 106.958,255.636 106.900,253.483 108.036 M243.900 108.808 C 242.855 109.465,242.000 110.281,242.000 110.623 C 242.000 111.439,245.387 112.953,247.249 112.969 C 250.579 112.998,251.080 110.031,248.000 108.526 C 245.756 107.430,246.136 107.404,243.900 108.808 M237.200 112.951 C 234.157 114.719,234.328 115.177,238.551 116.576 L 242.102 117.752 243.551 116.976 C 245.885 115.726,245.696 114.729,242.802 113.033 C 239.897 111.330,239.990 111.332,237.200 112.951 M284.200 113.486 C 282.762 113.834,281.600 115.251,281.600 116.655 C 281.600 118.942,283.116 122.370,284.229 122.600 C 284.763 122.710,285.625 122.887,286.144 122.994 C 287.643 123.301,288.415 122.047,288.883 118.546 L 289.299 115.428 287.965 114.314 C 286.679 113.241,285.912 113.072,284.200 113.486 M247.792 115.900 C 243.729 119.076,243.610 119.269,244.775 120.786 C 245.804 122.125,246.843 121.534,249.159 118.294 C 252.146 114.116,251.506 112.996,247.792 115.900 M273.559 116.528 C 271.991 117.599,271.964 117.969,273.087 123.000 C 274.356 128.683,281.192 128.996,281.199 123.371 C 281.205 117.898,277.030 114.158,273.559 116.528 M228.100 118.109 C 224.164 120.095,224.894 121.263,229.501 120.353 C 232.314 119.797,235.455 118.402,235.324 117.768 C 235.049 116.446,231.020 116.636,228.100 118.109 M266.400 118.791 C 262.515 119.620,261.778 120.525,262.446 123.638 C 262.967 126.068,263.818 128.240,264.386 128.592 C 265.024 128.986,269.732 127.995,270.500 127.305 C 272.205 125.773,269.871 117.738,267.926 118.446 C 267.857 118.471,267.170 118.627,266.400 118.791 M254.683 120.680 C 253.904 121.736,252.694 123.140,251.994 123.800 C 249.064 126.560,247.447 129.843,248.561 130.767 C 250.129 132.069,260.404 130.811,261.403 129.195 C 262.146 127.993,258.135 119.153,256.724 118.881 C 256.356 118.810,255.514 119.551,254.683 120.680 M162.400 121.134 C 162.400 121.731,161.950 124.786,161.400 127.921 C 160.800 131.342,160.398 135.178,160.394 137.511 C 160.388 141.049,159.679 145.655,159.042 146.292 C 156.627 148.706,157.925 128.346,160.655 120.974 C 161.281 119.285,162.400 119.388,162.400 121.134 M236.048 120.001 C 232.934 120.736,232.111 121.712,232.812 123.838 C 233.892 127.110,242.762 126.872,243.818 123.543 C 244.556 121.217,239.896 119.093,236.048 120.001 M168.163 122.011 C 168.142 122.555,167.734 124.440,167.255 126.200 C 166.777 127.960,166.275 130.390,166.140 131.600 L 165.896 133.800 167.347 132.422 C 168.145 131.665,169.559 130.000,170.489 128.722 C 171.420 127.445,172.320 126.400,172.490 126.400 C 173.535 126.400,172.151 128.845,167.961 134.400 C 166.550 136.270,165.054 138.565,164.637 139.500 C 164.220 140.435,163.655 141.200,163.382 141.200 C 162.830 141.200,162.287 140.106,162.594 139.610 C 162.702 139.436,163.074 137.337,163.422 134.946 C 164.076 130.450,165.825 122.746,166.480 121.476 C 167.022 120.426,168.208 120.803,168.163 122.011 M218.700 122.299 C 215.321 123.805,215.895 125.218,219.874 125.183 C 222.463 125.161,225.548 122.740,224.224 121.769 C 223.110 120.953,221.338 121.123,218.700 122.299 M227.754 122.486 C 225.461 124.247,225.764 124.784,229.057 124.794 C 231.562 124.801,232.409 123.666,230.971 122.229 C 230.105 121.362,229.114 121.442,227.754 122.486 M282.569 125.813 C 281.860 127.510,282.244 128.279,283.898 128.476 C 285.657 128.686,285.481 129.600,283.682 129.600 C 281.569 129.600,281.408 129.901,280.848 134.910 C 280.339 139.459,280.414 140.000,281.562 140.000 C 282.594 140.000,283.453 138.883,284.175 136.600 C 284.523 135.500,285.091 133.753,285.438 132.717 C 285.784 131.681,285.966 130.668,285.840 130.466 C 285.715 130.263,285.907 129.508,286.266 128.787 C 286.626 128.067,286.938 126.830,286.960 126.039 L 287.000 124.600 285.089 124.478 C 283.228 124.358,283.162 124.393,282.569 125.813 M210.466 125.792 C 207.486 127.193,208.152 128.254,212.078 128.360 C 214.041 128.413,216.026 126.819,215.360 125.724 C 214.701 124.641,212.858 124.667,210.466 125.792 M154.070 127.232 C 154.354 129.038,155.157 139.799,155.478 146.102 C 155.652 149.513,155.147 150.880,154.100 149.834 C 153.273 149.007,152.060 129.398,152.653 126.434 C 153.002 124.690,153.735 125.103,154.070 127.232 M219.177 127.579 C 217.627 128.050,216.400 128.781,216.400 129.234 C 216.400 130.274,221.617 131.743,222.165 130.857 C 222.476 130.354,221.698 127.909,221.107 127.534 C 220.526 127.165,220.542 127.165,219.177 127.579 M224.196 127.607 C 223.119 129.350,225.800 135.600,227.624 135.600 C 228.623 135.600,232.824 132.804,233.920 131.410 C 234.358 130.855,234.984 130.400,235.313 130.400 C 236.224 130.400,237.768 128.995,237.440 128.465 C 236.974 127.711,234.863 127.910,234.333 128.758 C 233.870 129.500,233.847 129.500,233.230 128.741 C 232.283 127.575,224.796 126.636,224.196 127.607 M202.549 129.167 C 200.373 130.155,200.183 130.571,201.450 131.568 C 202.850 132.669,203.584 132.618,205.321 131.300 C 208.211 129.107,206.159 127.528,202.549 129.167 M273.607 129.392 C 273.236 129.838,273.219 130.450,273.537 131.892 C 273.768 132.941,274.070 135.004,274.208 136.475 C 274.561 140.242,276.451 141.213,278.209 138.530 C 279.311 136.849,279.132 130.474,277.956 129.500 C 276.921 128.642,274.283 128.576,273.607 129.392 M266.448 130.393 C 264.509 130.862,264.360 131.325,264.646 136.000 C 264.964 141.197,264.698 140.850,268.124 140.546 C 272.725 140.137,272.837 139.973,271.953 134.901 C 271.271 130.984,269.615 129.627,266.448 130.393 M207.510 131.424 C 204.760 132.916,205.587 134.327,210.091 135.828 C 212.479 136.624,212.800 136.407,212.800 133.999 C 212.800 131.051,210.373 129.870,207.510 131.424 M194.512 133.035 C 190.453 135.158,190.092 135.540,191.247 136.500 C 192.437 137.490,193.183 137.387,196.346 135.800 C 197.880 135.030,199.398 134.400,199.719 134.400 C 201.123 134.400,201.254 133.317,199.981 132.245 C 198.398 130.913,198.632 130.880,194.512 133.035 M214.871 132.514 C 213.238 134.482,214.522 141.932,216.563 142.333 C 217.334 142.485,221.897 139.836,224.000 138.016 L 225.400 136.804 224.276 135.868 C 221.092 133.216,215.843 131.344,214.871 132.514 M259.601 132.684 C 259.064 133.060,257.809 133.574,256.812 133.825 C 254.659 134.367,253.868 135.519,254.222 137.600 C 254.693 140.376,255.268 140.800,258.565 140.800 C 262.962 140.800,263.460 140.279,262.787 136.376 C 262.004 131.831,261.557 131.314,259.601 132.684 M242.100 136.196 C 238.223 140.145,238.275 139.963,240.700 141.109 C 245.125 143.200,253.600 141.884,252.993 139.200 C 252.868 138.650,252.662 137.348,252.533 136.307 C 252.256 134.065,251.967 133.783,249.600 133.455 C 248.610 133.318,247.260 133.123,246.600 133.020 C 245.528 132.854,245.047 133.194,242.100 136.196 M150.765 142.066 C 152.326 150.993,152.349 154.494,150.827 151.651 C 149.443 149.065,147.731 135.203,148.678 134.255 C 149.194 133.739,149.527 134.985,150.765 142.066 M200.457 135.797 C 195.654 137.296,196.071 142.323,201.090 143.423 C 201.700 143.557,202.669 143.813,203.242 143.992 C 206.580 145.036,207.285 137.499,204.008 135.804 C 202.639 135.096,202.704 135.096,200.457 135.797 M186.287 137.831 C 182.408 140.257,183.728 141.990,187.938 139.998 C 190.518 138.778,190.882 138.160,189.669 137.062 C 188.733 136.215,188.949 136.166,186.287 137.831 M207.833 138.900 C 206.412 145.912,207.801 148.495,211.674 146.039 C 214.197 144.439,214.230 144.305,212.785 141.430 C 211.145 138.167,208.278 136.702,207.833 138.900 M188.800 141.426 C 185.922 143.050,185.683 143.729,186.876 146.887 C 187.336 148.107,187.564 148.207,191.172 148.774 C 193.878 149.200,194.800 148.921,194.800 147.677 C 194.800 147.334,195.181 146.265,195.647 145.302 L 196.495 143.552 195.547 142.525 C 193.495 140.298,191.401 139.957,188.800 141.426 M178.479 143.261 C 175.170 145.680,174.693 146.469,176.030 147.311 C 176.521 147.620,177.092 147.287,178.630 145.792 C 179.713 144.738,181.173 143.637,181.873 143.344 C 183.368 142.719,183.691 142.304,183.359 141.436 C 182.945 140.359,181.928 140.739,178.479 143.261 M277.530 142.074 C 275.798 142.535,275.504 143.088,276.038 144.877 C 276.255 145.605,276.320 147.381,276.183 148.824 C 275.710 153.810,276.755 153.392,279.622 147.451 C 282.565 141.355,282.346 140.792,277.530 142.074 M234.817 143.783 L 233.067 145.566 234.077 147.083 C 234.632 147.917,235.308 149.172,235.580 149.871 C 236.470 152.165,237.281 152.571,241.005 152.586 C 245.255 152.604,245.353 152.505,244.986 148.590 C 244.653 145.038,243.957 144.001,241.900 143.998 C 241.185 143.997,239.880 143.552,239.000 143.010 C 236.887 141.709,236.844 141.717,234.817 143.783 M267.691 142.492 C 266.566 143.034,266.328 143.947,266.256 147.986 C 266.184 152.049,266.393 152.260,270.706 152.491 C 274.745 152.708,274.880 152.579,274.166 149.200 C 273.864 147.770,273.613 146.203,273.608 145.719 C 273.581 142.827,270.491 141.143,267.691 142.492 M258.100 142.975 C 256.584 143.659,256.534 144.067,257.355 149.113 C 258.017 153.189,257.749 152.961,261.269 152.423 C 265.390 151.794,265.666 151.303,264.626 146.454 C 263.824 142.714,261.464 141.456,258.100 142.975 M249.104 143.886 C 247.405 144.144,246.799 145.384,246.806 148.589 C 246.815 152.508,246.739 152.449,251.633 152.315 L 255.800 152.200 255.721 150.466 C 255.464 144.842,253.789 143.175,249.104 143.886 M182.200 144.866 C 178.559 146.875,178.420 148.471,181.900 148.318 C 184.502 148.204,184.605 148.161,184.725 147.120 C 184.974 144.958,183.851 143.955,182.200 144.866 M197.404 145.596 C 196.335 146.777,196.110 150.200,196.993 151.840 C 198.149 153.985,198.033 154.005,204.300 150.542 C 207.869 148.570,206.996 147.118,201.227 145.434 C 198.465 144.628,198.272 144.636,197.404 145.596 M171.219 148.860 C 166.535 152.590,167.413 154.899,172.308 151.723 C 175.314 149.771,175.739 149.012,174.469 147.862 C 173.503 146.989,173.612 146.955,171.219 148.860 M229.085 149.114 C 226.653 151.583,226.661 151.600,230.213 151.600 C 233.748 151.600,234.060 151.269,232.820 148.839 C 231.756 146.753,231.383 146.781,229.085 149.114 M180.010 150.809 C 175.974 151.758,176.278 159.690,180.392 160.798 C 186.667 162.488,186.800 162.422,186.800 157.617 C 186.800 150.745,185.561 149.503,180.010 150.809 M188.466 151.321 C 187.506 152.477,188.904 162.346,189.967 161.924 C 191.015 161.509,196.000 155.489,196.000 154.640 C 196.000 153.280,194.030 151.759,191.592 151.236 C 189.043 150.689,188.989 150.690,188.466 151.321 M170.444 154.999 C 168.092 156.731,168.000 156.865,168.000 158.566 C 168.000 161.855,168.279 161.994,173.154 161.133 C 176.760 160.496,176.800 160.447,175.957 157.707 C 175.566 156.438,175.143 154.905,175.016 154.300 C 174.674 152.674,173.322 152.880,170.444 154.999 M222.400 155.034 C 216.269 159.438,212.800 162.181,212.800 162.626 C 212.800 163.868,213.917 164.088,216.686 163.390 C 218.561 162.918,220.226 162.775,222.072 162.928 C 225.692 163.227,225.747 163.137,225.332 157.603 L 225.000 153.166 222.400 155.034 M227.333 153.830 C 227.200 154.177,227.296 155.142,227.546 155.976 C 227.796 156.810,228.000 158.764,228.000 160.318 C 228.000 164.057,228.355 164.400,232.219 164.400 C 236.207 164.400,236.693 163.773,236.010 159.512 C 235.754 157.910,235.459 156.017,235.355 155.305 C 235.103 153.584,234.239 153.200,230.614 153.200 C 228.217 153.200,227.524 153.333,227.333 153.830 M160.519 158.022 C 157.834 160.434,154.864 163.327,153.919 164.450 C 152.973 165.573,148.941 170.178,144.958 174.684 C 135.237 185.679,129.600 196.171,129.600 203.268 C 129.600 205.236,128.772 204.952,125.658 201.915 C 121.651 198.007,120.071 196.838,116.096 194.844 C 112.135 192.857,102.516 190.222,100.435 190.554 C 97.929 190.952,98.250 191.480,101.273 191.931 C 112.001 193.532,122.097 199.773,125.385 206.836 C 127.391 211.146,126.347 212.311,123.104 209.380 C 118.953 205.627,113.615 202.823,108.200 201.549 C 102.348 200.173,82.426 200.533,84.756 201.973 C 85.000 202.123,89.132 202.281,93.939 202.324 C 102.995 202.405,107.335 203.022,109.689 204.564 C 110.197 204.897,111.392 205.444,112.344 205.780 C 116.093 207.103,122.800 213.852,122.800 216.302 C 122.800 216.864,122.342 217.925,121.782 218.660 C 117.263 224.584,118.824 232.937,126.277 242.706 C 133.298 251.910,140.088 255.241,149.000 253.856 C 154.247 253.041,167.200 266.177,167.200 272.314 C 167.200 272.796,167.547 274.498,167.971 276.096 C 168.962 279.832,169.528 283.611,169.836 288.556 C 170.124 293.167,170.791 293.056,170.782 288.400 C 170.751 272.078,166.643 261.206,157.749 253.906 L 154.727 251.426 155.608 250.713 C 160.780 246.525,173.300 260.120,177.239 274.200 C 178.570 278.959,179.352 281.200,179.683 281.200 C 181.631 281.200,175.534 262.145,172.452 258.600 C 172.069 258.160,171.250 257.007,170.631 256.037 C 170.012 255.067,167.997 252.709,166.153 250.796 C 161.278 245.740,161.310 245.665,168.927 244.427 C 178.428 242.883,184.890 239.954,189.326 235.181 C 190.907 233.480,192.830 231.772,193.600 231.386 C 197.219 229.572,204.173 224.617,206.848 221.947 C 208.472 220.326,211.870 217.511,214.400 215.690 C 219.928 211.713,223.108 208.986,222.701 208.572 C 221.721 207.577,215.953 207.895,214.791 209.008 C 212.739 210.974,211.602 208.436,211.598 201.880 C 211.593 194.922,210.435 192.002,207.678 191.999 C 207.085 191.998,205.973 191.615,205.207 191.148 C 203.300 189.986,195.994 190.575,196.002 191.890 C 196.003 192.061,197.532 192.981,199.401 193.935 C 207.839 198.245,211.001 207.407,206.905 215.679 C 205.183 219.156,201.988 223.200,200.963 223.200 C 200.183 223.200,200.165 223.254,202.413 218.774 C 208.656 206.334,204.522 197.568,190.157 192.786 C 186.977 191.727,186.445 191.072,184.397 185.690 C 180.250 174.789,176.145 170.540,167.657 168.360 C 164.149 167.459,163.386 167.564,156.639 169.879 C 152.351 171.350,151.356 171.243,152.538 169.439 C 153.750 167.588,159.692 164.795,163.694 164.195 C 164.728 164.040,165.769 163.679,166.007 163.392 C 167.271 161.868,161.493 161.782,159.366 163.294 C 158.359 164.010,157.692 164.252,157.434 163.994 C 156.925 163.485,158.818 161.519,163.068 158.142 C 166.270 155.597,167.029 154.694,166.578 153.964 C 166.105 153.198,165.253 153.769,160.519 158.022 M260.902 154.063 C 258.823 154.638,258.431 155.658,258.309 160.816 L 258.200 165.400 261.398 165.659 C 266.256 166.054,266.801 165.653,266.798 161.690 C 266.793 155.277,264.982 152.935,260.902 154.063 M271.400 154.503 C 270.300 154.714,269.195 154.943,268.945 155.013 C 268.476 155.144,268.449 164.182,268.917 164.650 C 269.443 165.176,271.288 162.693,274.555 157.060 C 276.062 154.462,275.212 153.773,271.400 154.503 M238.839 154.754 C 237.638 155.544,237.906 163.579,239.151 164.082 C 241.175 164.901,244.173 164.955,244.812 164.186 C 245.923 162.847,245.617 156.453,244.400 155.578 C 243.241 154.745,239.660 154.214,238.839 154.754 M248.447 155.553 C 247.219 156.781,247.161 164.137,248.374 164.786 C 249.772 165.534,255.578 165.314,255.913 164.500 C 256.483 163.111,256.243 156.471,255.600 155.842 C 254.490 154.756,249.447 154.553,248.447 155.553 M164.650 158.994 C 163.659 159.744,164.091 160.899,165.298 160.728 C 165.950 160.636,166.200 160.332,166.200 159.633 C 166.200 158.460,165.654 158.235,164.650 158.994 M172.859 164.385 C 170.121 164.817,169.480 165.399,171.039 166.038 C 180.286 169.829,182.456 172.155,186.630 182.750 C 189.228 189.346,188.688 189.083,197.055 187.833 C 204.600 186.706,204.605 186.703,205.010 183.455 C 205.754 177.492,203.455 176.272,193.539 177.371 L 190.478 177.711 189.888 176.555 C 189.096 175.005,188.400 171.592,188.400 169.257 C 188.400 168.210,188.175 167.064,187.900 166.712 C 186.609 165.057,177.517 163.651,172.859 164.385 M209.215 166.300 C 205.707 170.531,205.312 173.241,208.000 174.631 C 213.736 177.596,216.208 175.206,214.225 168.616 C 213.064 164.757,211.205 163.899,209.215 166.300 M216.215 166.242 C 215.798 166.659,215.669 167.185,215.848 167.742 C 216.479 169.706,216.782 171.515,216.797 173.400 C 216.820 176.418,217.032 176.579,221.168 176.739 C 224.671 176.875,224.770 176.854,224.958 175.939 C 225.309 174.226,225.543 167.755,225.269 167.330 C 224.196 165.663,217.587 164.870,216.215 166.242 M228.860 166.928 C 228.295 167.609,227.592 176.397,228.034 177.247 C 228.553 178.242,233.735 178.665,235.029 177.818 C 235.950 177.214,236.000 176.976,236.000 173.164 C 236.000 168.557,235.662 167.600,234.035 167.600 C 233.409 167.600,232.251 167.330,231.462 167.000 C 229.704 166.266,229.416 166.258,228.860 166.928 M240.107 167.208 C 237.883 167.529,238.043 167.120,237.791 173.131 L 237.569 178.408 238.611 178.804 C 243.004 180.474,244.642 179.187,245.011 173.773 C 245.409 167.940,244.399 166.588,240.107 167.208 M249.355 167.192 C 247.348 168.003,246.800 169.414,246.800 173.774 C 246.800 178.664,246.898 178.800,250.431 178.800 C 251.900 178.800,253.744 179.068,254.529 179.396 C 256.742 180.321,257.181 179.990,257.794 176.936 C 258.077 175.526,257.347 169.422,256.765 168.334 C 256.083 167.061,251.448 166.347,249.355 167.192 M264.400 167.634 C 263.630 167.817,262.190 168.110,261.200 168.285 L 259.400 168.603 259.313 173.301 C 259.201 179.302,259.311 179.298,263.941 173.106 C 268.504 167.002,268.534 166.651,264.400 167.634 M208.021 178.575 C 207.333 179.404,206.848 186.513,207.417 187.434 C 208.243 188.771,212.803 190.284,213.429 189.428 C 214.072 188.549,214.605 181.095,214.091 180.177 C 213.587 179.276,208.543 177.945,208.021 178.575 M216.654 179.803 C 216.514 180.167,216.400 181.607,216.400 183.002 C 216.400 184.397,216.191 186.444,215.936 187.551 C 215.250 190.520,215.620 190.800,220.225 190.800 C 224.533 190.800,224.385 190.923,224.829 186.964 C 225.383 182.022,224.977 180.749,222.660 180.157 C 218.856 179.187,216.934 179.074,216.654 179.803 M228.059 180.531 C 227.516 181.188,226.714 187.034,226.870 189.197 C 227.062 191.850,231.406 193.526,233.464 191.741 C 234.865 190.526,235.230 181.888,233.915 181.066 C 232.679 180.293,228.566 179.917,228.059 180.531 M237.403 181.195 C 236.914 181.986,236.017 187.580,236.008 189.892 C 235.999 192.350,235.751 192.236,241.834 192.572 L 245.869 192.795 245.718 188.498 C 245.522 182.913,245.320 181.732,244.507 181.420 C 243.017 180.848,237.721 180.680,237.403 181.195 M148.990 182.154 C 152.991 186.155,148.827 199.200,143.549 199.200 C 139.964 199.200,138.009 196.664,137.928 191.909 C 137.817 185.360,145.458 178.622,148.990 182.154 M247.848 181.819 C 247.312 183.217,247.571 190.800,248.155 190.800 C 248.900 190.800,256.490 182.471,256.291 181.872 C 256.022 181.061,248.158 181.012,247.848 181.819 M215.564 193.267 C 215.028 194.269,214.563 202.200,214.949 203.741 C 215.524 206.031,220.860 206.112,221.807 203.846 C 222.544 202.080,223.369 196.327,223.060 195.097 C 222.580 193.185,216.414 191.680,215.564 193.267 M226.014 194.374 C 225.786 194.799,225.598 195.654,225.595 196.274 C 225.592 196.893,225.232 198.541,224.795 199.936 C 223.627 203.661,223.714 204.291,225.500 205.051 C 226.325 205.402,227.577 205.963,228.282 206.298 C 229.518 206.885,229.635 206.861,231.545 205.635 L 233.526 204.364 233.500 200.179 C 233.471 195.498,233.563 195.661,230.285 194.453 C 227.424 193.399,226.545 193.382,226.014 194.374 M241.229 194.439 C 240.696 194.652,239.976 194.800,239.629 194.767 C 236.205 194.445,235.478 195.158,235.368 198.948 C 235.320 200.628,235.430 202.095,235.613 202.208 C 235.976 202.432,243.180 196.336,243.745 195.326 C 244.367 194.216,242.997 193.732,241.229 194.439 M247.000 204.746 C 239.088 207.075,230.676 211.053,222.769 216.205 C 217.461 219.664,217.176 219.950,218.195 220.796 C 218.947 221.420,222.157 227.977,221.857 228.276 C 221.291 228.843,220.315 227.812,219.058 225.318 C 216.674 220.588,216.622 220.575,210.100 223.113 C 206.715 224.429,207.230 225.639,212.800 229.463 C 235.477 245.031,270.179 247.650,283.326 234.786 C 286.213 231.961,286.559 230.929,284.561 231.098 C 276.423 231.788,273.914 231.090,267.665 226.397 C 261.888 222.060,257.852 216.239,255.226 208.459 L 253.788 204.200 251.594 204.120 C 250.387 204.076,248.320 204.357,247.000 204.746 M245.105 212.085 C 245.016 212.352,241.806 213.482,237.972 214.595 C 234.137 215.709,229.728 217.094,228.173 217.675 C 225.377 218.717,221.600 219.511,221.600 219.056 C 221.600 218.276,234.629 213.761,240.188 212.614 C 241.942 212.252,243.457 211.876,243.555 211.778 C 243.956 211.378,245.255 211.635,245.105 212.085 M238.400 218.752 C 238.400 219.508,231.071 219.962,230.621 219.234 C 230.497 219.033,230.621 218.785,230.898 218.683 C 231.817 218.343,238.400 218.404,238.400 218.752 M225.134 221.150 C 225.559 221.420,225.532 221.540,225.001 221.744 C 223.997 222.129,221.600 222.051,221.600 221.633 C 221.600 220.874,224.148 220.525,225.134 221.150 M241.198 221.274 C 246.026 221.141,248.400 221.384,248.400 222.011 C 248.400 222.789,239.123 223.730,237.025 223.164 C 236.351 222.982,233.863 222.639,231.496 222.403 C 223.868 221.639,224.270 220.603,232.000 221.103 C 234.530 221.266,238.669 221.343,241.198 221.274 M125.624 224.700 C 128.126 232.413,135.004 241.102,142.407 245.900 C 147.797 249.394,147.872 249.456,147.369 249.976 C 147.056 250.300,146.391 250.304,144.924 249.989 C 136.887 248.266,123.600 232.990,123.600 225.475 C 123.600 222.715,124.828 222.245,125.624 224.700 M233.027 224.005 C 234.332 224.228,236.030 224.584,236.800 224.796 C 237.570 225.008,240.450 225.650,243.200 226.221 C 251.953 228.040,254.895 229.128,253.015 229.849 C 252.251 230.143,243.312 228.401,235.551 226.446 C 232.168 225.594,228.905 224.782,228.300 224.641 C 224.756 223.816,228.761 223.277,233.027 224.005 M226.951 225.167 C 229.827 226.806,236.208 229.153,244.400 231.584 C 254.157 234.479,256.591 235.600,253.122 235.600 C 246.972 235.600,229.354 229.218,225.962 225.761 C 223.937 223.698,224.149 223.571,226.951 225.167 M186.482 226.816 C 192.625 228.522,188.612 237.322,181.429 237.899 C 176.530 238.292,172.110 236.184,171.719 233.269 C 171.117 228.786,179.843 224.972,186.482 226.816 M197.448 305.886 C 197.275 306.059,195.844 306.321,194.267 306.470 C 171.207 308.640,158.037 325.574,159.976 350.562 C 160.230 353.841,160.610 356.844,160.819 357.236 C 161.029 357.627,161.203 358.364,161.206 358.874 C 161.262 367.745,174.537 381.638,185.600 384.403 C 193.679 386.422,194.722 386.527,206.600 386.519 C 217.093 386.513,220.102 386.293,224.300 385.230 C 225.235 384.994,226.675 384.649,227.500 384.465 C 238.258 382.063,248.916 371.237,251.980 359.600 C 252.241 358.610,252.622 357.247,252.827 356.572 C 253.307 354.990,253.315 337.446,252.836 335.828 C 250.997 329.614,250.012 327.082,248.364 324.341 C 241.869 313.534,233.702 308.594,218.600 306.336 C 215.153 305.821,197.880 305.453,197.448 305.886 M76.604 309.423 L 75.181 310.845 75.388 325.923 C 75.649 344.871,75.647 349.136,75.376 367.400 C 75.073 387.836,73.453 386.000,91.782 386.000 C 109.197 386.000,108.466 386.433,108.727 375.946 L 108.882 369.692 111.007 367.593 L 113.132 365.495 114.666 367.983 C 115.510 369.352,116.740 371.348,117.400 372.418 C 118.800 374.687,120.164 377.002,122.634 381.296 C 125.498 386.276,124.460 386.048,143.710 385.913 C 159.083 385.805,159.847 385.764,160.866 385.000 C 163.346 383.139,164.026 379.315,162.300 376.939 C 160.558 374.542,157.896 371.096,157.252 370.403 C 156.893 370.017,155.700 368.499,154.600 367.030 C 153.500 365.560,151.371 362.822,149.869 360.946 C 146.404 356.619,136.400 343.174,136.400 342.844 C 136.400 342.707,141.992 337.016,148.826 330.198 C 162.281 316.774,162.400 316.628,162.400 313.582 C 162.400 308.062,162.177 308.000,142.218 308.000 C 123.540 308.000,124.126 307.916,122.064 310.901 C 121.418 311.835,120.464 313.068,119.945 313.641 C 119.425 314.213,117.740 316.182,116.200 318.017 C 114.660 319.851,112.368 322.443,111.108 323.776 L 108.815 326.200 108.798 319.800 C 108.778 312.220,108.475 310.588,106.815 309.100 L 105.587 308.000 91.807 308.000 L 78.027 308.000 76.604 309.423 M260.999 309.321 C 259.267 311.053,259.091 312.557,259.279 324.006 C 259.491 336.875,259.431 336.800,269.547 336.800 L 276.000 336.800 276.000 347.000 L 276.000 357.200 273.824 357.200 C 272.627 357.200,271.536 357.020,271.400 356.800 C 270.998 356.149,263.743 356.306,262.412 356.994 C 259.507 358.496,259.400 358.992,259.400 371.000 C 259.400 387.827,255.457 386.000,291.767 386.000 C 327.701 386.000,324.103 387.277,324.336 374.437 C 324.561 362.075,324.300 359.900,322.361 357.961 L 320.800 356.400 316.624 356.400 C 314.271 356.400,312.339 356.575,312.200 356.800 C 312.064 357.020,311.063 357.200,309.976 357.200 L 308.000 357.200 308.000 347.000 L 308.000 336.800 314.220 336.800 C 324.235 336.800,324.144 336.913,324.337 324.241 C 324.516 312.593,324.337 311.057,322.601 309.321 L 321.280 308.000 291.800 308.000 L 262.320 308.000 260.999 309.321 M220.800 312.122 C 240.132 316.185,249.789 329.786,247.980 350.400 C 246.208 370.582,233.771 380.650,209.600 381.467 C 181.793 382.406,167.132 372.036,165.226 350.079 C 163.755 333.138,171.095 319.555,184.518 314.378 C 193.922 310.752,209.634 309.775,220.800 312.122 M102.720 313.280 C 103.072 313.632,103.202 317.016,103.206 325.980 C 103.210 333.059,103.373 338.452,103.595 338.800 C 104.258 339.841,116.516 327.161,124.536 317.138 C 126.236 315.013,127.905 313.168,128.246 313.038 C 129.303 312.632,155.752 312.781,156.400 313.197 C 156.877 313.502,154.161 316.422,143.100 327.493 C 134.565 336.035,129.200 341.698,129.200 342.166 C 129.200 343.285,139.829 357.723,151.555 372.535 C 154.662 376.459,157.103 379.834,156.978 380.035 C 156.849 380.244,150.775 380.400,142.786 380.400 L 128.818 380.400 128.274 379.500 C 127.974 379.005,125.069 374.131,121.818 368.668 C 118.567 363.206,115.498 358.261,114.998 357.679 L 114.088 356.622 109.144 361.373 C 102.934 367.341,103.435 366.294,103.200 373.800 L 103.000 380.200 91.890 380.306 C 83.218 380.389,80.737 380.302,80.586 379.906 C 80.480 379.628,80.529 372.167,80.696 363.326 C 80.863 354.485,80.864 339.745,80.698 330.570 C 80.477 318.373,80.517 313.742,80.847 313.344 C 81.463 312.601,101.981 312.541,102.720 313.280 M318.132 313.301 C 318.747 313.751,318.806 314.669,318.708 322.401 L 318.600 331.000 311.000 331.000 C 306.820 331.000,303.175 331.146,302.900 331.324 C 302.515 331.573,302.400 335.112,302.400 346.775 C 302.400 358.404,302.516 361.991,302.900 362.288 C 303.219 362.534,305.982 362.542,310.527 362.310 C 319.701 361.842,318.841 360.870,318.708 371.555 L 318.600 380.200 291.800 380.200 L 265.000 380.200 264.887 372.000 C 264.824 367.490,264.876 363.382,265.002 362.871 L 265.230 361.942 271.315 362.189 C 274.662 362.325,277.967 362.523,278.661 362.629 C 281.226 363.021,281.201 363.180,281.194 346.871 C 281.190 338.303,281.030 331.950,280.808 331.600 C 280.491 331.101,279.135 331.000,272.714 331.000 L 265.000 331.000 264.892 322.401 C 264.794 314.669,264.853 313.751,265.468 313.301 C 266.465 312.572,317.135 312.572,318.132 313.301 M199.364 330.994 C 188.898 333.271,184.212 344.510,189.422 354.836 C 193.563 363.041,214.172 365.141,221.425 358.097 C 226.655 353.018,227.067 341.022,222.211 335.279 C 218.805 331.252,207.727 329.174,199.364 330.994 M213.259 336.573 C 217.074 337.731,219.127 339.499,219.794 342.200 C 220.305 344.271,220.489 348.479,220.108 349.358 C 218.064 354.069,217.753 354.404,214.000 355.937 C 209.461 357.791,200.444 357.023,196.238 354.423 C 192.908 352.366,191.779 345.654,193.984 341.033 C 195.218 338.448,195.192 338.468,200.000 336.470 C 201.536 335.831,211.060 335.905,213.259 336.573 " stroke="none" fill="#f6f4f3" fill-rule="evenodd"></path><path id="path2" d="M229.795 42.808 C 229.697 42.967,231.548 43.774,233.908 44.602 C 251.131 50.643,260.438 61.419,261.107 76.093 C 261.449 83.617,257.006 81.620,249.904 71.057 C 242.785 60.469,227.580 53.071,221.445 57.211 C 219.517 58.512,219.437 58.550,209.800 62.597 C 206.280 64.076,199.620 67.138,195.000 69.403 C 183.974 74.807,181.273 75.820,169.444 78.985 C 159.675 81.599,142.113 86.901,140.666 87.673 C 138.405 88.879,141.628 88.729,150.443 87.217 C 158.227 85.882,168.260 84.903,169.432 85.365 C 170.389 85.742,168.415 86.810,161.510 89.651 C 153.093 93.115,145.378 97.305,133.997 104.595 C 125.023 110.343,120.356 112.777,112.102 116.013 C 98.806 121.225,97.890 122.197,108.664 119.658 C 119.539 117.096,130.608 115.198,131.979 115.662 C 132.204 115.738,130.393 118.281,127.956 121.313 C 121.164 129.760,113.694 136.030,97.863 146.573 C 90.285 151.619,88.180 153.200,89.040 153.200 C 90.513 153.200,98.387 150.140,102.800 147.853 C 105.770 146.314,109.045 144.619,110.079 144.087 C 114.439 141.841,113.384 143.316,105.036 151.132 C 101.656 154.297,101.755 154.373,106.632 152.359 C 117.447 147.894,118.066 147.830,116.605 151.326 C 114.681 155.930,107.377 163.966,102.000 167.393 C 89.375 175.441,79.646 172.824,65.025 157.447 C 61.519 153.759,58.781 151.200,58.343 151.200 C 57.746 151.200,57.587 150.866,57.535 149.500 C 57.496 148.454,57.380 148.955,57.235 150.800 C 56.937 154.606,57.436 171.636,57.963 175.600 C 58.710 181.225,59.633 186.549,60.355 189.400 C 60.578 190.280,60.948 191.875,61.177 192.944 C 67.287 221.517,87.943 252.941,113.000 271.783 C 122.254 278.742,139.575 288.957,140.818 288.189 C 141.028 288.059,141.200 288.156,141.200 288.405 C 141.200 288.666,141.465 288.592,141.829 288.229 C 142.640 287.418,141.506 287.481,156.000 287.438 L 168.600 287.400 168.539 284.600 C 168.505 283.060,168.171 280.450,167.795 278.800 C 167.419 277.150,166.853 274.637,166.536 273.214 C 165.044 266.522,160.740 260.743,153.848 256.176 C 151.306 254.492,150.726 254.409,145.571 254.998 C 130.159 256.758,112.189 229.565,121.197 218.113 C 121.639 217.552,122.000 216.702,122.000 216.226 C 122.000 214.212,114.895 207.148,112.295 206.577 C 111.638 206.433,110.525 205.975,109.821 205.559 C 106.669 203.700,95.945 202.510,87.670 203.102 C 84.663 203.317,83.200 202.835,83.200 201.629 C 83.200 200.521,84.020 200.344,90.800 199.984 C 106.254 199.163,113.905 201.034,122.269 207.680 C 125.530 210.272,126.090 210.137,124.689 207.095 C 121.563 200.305,111.065 194.050,100.452 192.654 C 96.562 192.142,96.001 191.499,98.400 190.301 C 103.485 187.761,118.349 193.638,126.290 201.329 C 128.690 203.653,128.669 203.658,129.211 200.723 C 130.870 191.750,134.971 184.664,144.848 173.706 C 147.577 170.678,150.910 166.850,152.254 165.200 C 154.379 162.590,157.714 159.489,168.514 150.078 C 178.509 141.370,194.809 131.092,203.869 127.785 C 204.931 127.397,207.150 126.462,208.800 125.706 C 211.488 124.475,216.266 122.493,221.719 120.344 C 226.192 118.583,232.646 115.039,241.280 109.603 C 248.320 105.171,257.467 95.812,260.674 89.759 C 269.100 73.859,262.037 56.524,242.800 45.893 C 238.167 43.332,230.583 41.533,229.795 42.808 M100.200 54.800 C 98.229 56.780,96.748 58.400,96.908 58.400 C 97.251 58.400,100.910 54.847,102.778 52.700 C 104.931 50.225,103.995 50.988,100.200 54.800 M296.049 52.381 C 296.529 53.030,297.209 53.671,297.561 53.805 C 297.912 53.939,297.580 53.408,296.822 52.625 C 295.144 50.891,294.888 50.810,296.049 52.381 M233.600 51.745 C 233.600 51.880,234.905 52.644,236.500 53.444 C 243.681 57.044,248.349 61.254,251.155 66.659 C 253.795 71.745,255.902 72.966,254.374 68.523 C 252.804 63.961,250.481 60.921,246.063 57.648 C 241.853 54.529,233.600 50.620,233.600 51.745 M302.648 58.981 C 302.771 59.300,303.710 60.230,304.735 61.047 L 306.600 62.533 304.615 60.467 C 302.457 58.220,302.315 58.112,302.648 58.981 M288.400 78.283 C 288.400 78.512,288.681 79.487,289.025 80.450 C 292.375 89.840,291.693 112.353,287.601 127.400 C 286.703 130.700,285.827 134.030,285.654 134.800 C 285.341 136.192,284.781 137.581,281.298 145.597 C 279.287 150.226,278.801 151.166,275.410 157.000 C 266.801 171.810,258.473 182.204,244.137 196.029 C 236.224 203.660,230.671 207.694,225.400 209.638 C 222.343 210.766,220.395 212.084,208.900 220.803 C 206.682 222.486,206.182 223.436,207.700 223.085 C 210.199 222.507,216.005 220.072,217.113 219.137 C 223.840 213.462,239.947 205.462,248.600 203.498 C 253.789 202.320,254.111 202.518,256.011 208.068 C 260.971 222.547,271.936 231.674,282.729 230.307 C 291.851 229.152,284.415 237.722,272.890 241.646 C 254.895 247.772,222.970 240.403,208.188 226.711 L 205.776 224.476 200.988 227.678 C 198.355 229.439,195.480 231.242,194.600 231.685 C 193.720 232.127,191.560 233.978,189.800 235.798 C 185.071 240.688,177.659 244.006,168.431 245.364 C 162.892 246.180,162.907 246.137,166.690 250.180 C 168.453 252.064,170.404 254.369,171.027 255.303 C 171.650 256.236,172.467 257.360,172.843 257.800 C 176.394 261.955,179.883 272.691,181.099 283.200 L 181.400 285.800 183.800 285.929 C 187.277 286.117,195.661 285.327,202.800 284.140 C 264.689 273.845,304.751 234.555,313.067 176.000 C 314.097 168.747,314.098 146.287,313.069 139.400 C 310.166 119.967,305.584 107.484,293.937 87.275 C 288.323 77.534,288.400 77.659,288.400 78.283 M266.625 88.351 C 266.298 88.984,265.656 90.899,265.198 92.606 C 264.261 96.103,261.962 100.843,259.185 105.000 C 258.156 106.540,256.945 108.520,256.494 109.400 C 256.043 110.280,255.100 111.540,254.400 112.200 C 253.700 112.860,252.758 114.116,252.308 114.992 C 250.616 118.285,246.457 122.959,242.600 125.905 C 241.280 126.913,239.840 128.141,239.400 128.632 C 238.453 129.690,228.981 136.342,227.744 136.818 C 227.272 136.999,225.022 138.394,222.744 139.918 C 220.465 141.442,217.847 143.072,216.927 143.539 C 216.007 144.006,215.143 144.568,215.007 144.788 C 214.871 145.008,213.464 145.941,211.880 146.862 C 210.296 147.783,207.822 149.295,206.383 150.222 C 204.944 151.149,202.334 152.635,200.583 153.525 C 197.846 154.916,196.896 155.706,193.800 159.171 C 189.953 163.476,189.846 163.547,188.739 162.545 C 188.147 162.009,187.904 161.982,187.404 162.396 C 186.745 162.944,185.012 162.821,181.115 161.951 C 177.776 161.206,168.680 162.423,167.200 163.814 C 166.534 164.439,165.379 164.885,163.742 165.148 C 160.009 165.747,152.856 168.989,153.608 169.741 C 153.716 169.849,155.873 169.238,158.402 168.383 C 170.325 164.353,179.146 169.882,185.041 185.078 C 187.222 190.701,187.304 190.794,191.437 192.373 C 203.668 197.045,208.462 204.630,205.371 214.417 C 204.050 218.599,204.343 218.837,206.196 215.087 C 210.162 207.061,207.053 198.639,198.580 194.462 C 193.334 191.876,193.193 190.849,197.977 190.059 C 202.058 189.385,204.181 189.478,205.690 190.399 C 206.411 190.838,207.455 191.198,208.011 191.199 C 211.076 191.203,212.109 193.504,212.411 201.000 C 212.558 204.643,212.853 207.369,213.161 207.939 L 213.670 208.878 214.258 208.039 C 214.581 207.578,215.185 207.200,215.599 207.200 C 216.857 207.200,216.862 206.523,215.608 206.003 C 213.954 205.318,213.800 204.605,213.800 197.616 L 213.800 191.432 210.702 190.216 C 207.032 188.776,206.000 187.973,206.000 186.562 L 206.000 185.515 204.840 186.758 C 204.065 187.587,203.300 187.999,202.540 187.998 C 201.913 187.997,198.833 188.391,195.695 188.872 L 189.990 189.749 188.897 188.933 C 188.100 188.337,187.149 186.502,185.384 182.149 C 181.422 172.381,179.007 169.817,171.253 167.149 C 165.641 165.218,167.145 163.790,175.279 163.326 C 178.926 163.118,180.137 163.219,183.479 164.010 C 188.570 165.214,188.803 165.449,189.246 169.815 C 189.926 176.526,190.516 177.459,193.626 176.735 C 197.908 175.738,204.053 176.432,205.594 178.086 C 206.033 178.557,206.438 178.865,206.496 178.771 C 207.932 176.415,207.916 175.743,206.403 174.881 C 202.868 172.870,207.969 164.726,216.925 158.079 C 224.454 152.491,225.464 151.596,236.090 141.116 C 244.735 132.590,246.581 130.566,247.633 128.460 C 248.322 127.081,249.818 124.928,250.956 123.676 C 255.107 119.112,256.309 117.388,257.281 114.600 C 257.818 113.060,259.280 110.108,260.529 108.040 C 261.778 105.972,262.800 104.055,262.800 103.780 C 262.800 103.505,263.527 101.700,264.415 99.768 C 265.858 96.628,268.800 88.429,268.800 87.544 C 268.800 86.690,267.172 87.294,266.625 88.351 M158.973 95.956 C 159.093 96.151,159.467 97.636,159.802 99.256 C 161.130 105.667,163.416 108.640,168.646 110.757 C 174.592 113.163,175.627 113.752,177.619 115.858 C 182.704 121.234,182.748 128.344,177.740 135.290 C 174.652 139.572,152.798 160.630,149.336 162.659 C 147.202 163.909,146.831 163.691,145.633 160.488 C 141.874 150.432,141.479 133.513,144.769 123.504 C 145.656 120.807,146.843 116.890,147.407 114.800 C 149.512 107.005,157.628 93.781,158.973 95.956 M57.200 144.600 C 57.200 145.150,57.335 145.600,57.500 145.600 C 57.665 145.600,57.800 145.150,57.800 144.600 C 57.800 144.050,57.665 143.600,57.500 143.600 C 57.335 143.600,57.200 144.050,57.200 144.600 M342.146 157.400 C 342.147 159.600,342.214 160.449,342.295 159.287 C 342.376 158.124,342.376 156.324,342.293 155.287 C 342.211 154.249,342.145 155.200,342.146 157.400 M144.200 182.754 C 137.263 187.094,136.674 198.440,143.389 198.387 C 145.542 198.370,146.166 197.813,147.809 194.437 C 151.694 186.454,149.522 179.424,144.200 182.754 M124.524 226.609 C 125.571 233.062,134.866 244.211,142.339 247.979 C 145.274 249.459,144.613 248.635,140.564 245.764 C 134.491 241.459,129.775 235.739,126.331 228.500 C 124.622 224.907,124.171 224.435,124.524 226.609 M178.397 227.574 C 169.764 230.200,171.360 237.200,180.593 237.200 C 186.358 237.200,191.107 230.709,187.241 228.113 C 185.816 227.156,180.780 226.849,178.397 227.574 M157.500 251.092 C 156.154 251.289,156.105 251.715,157.335 252.521 C 164.860 257.451,170.075 268.146,171.222 281.000 C 171.785 287.316,171.728 287.229,175.134 286.927 C 178.674 286.613,178.952 286.353,178.634 283.650 C 176.808 268.111,165.042 249.985,157.500 251.092 M202.100 300.676 C 202.485 300.776,203.115 300.776,203.500 300.676 C 203.885 300.575,203.570 300.493,202.800 300.493 C 202.030 300.493,201.715 300.575,202.100 300.676 M201.200 311.653 C 176.060 313.555,163.467 327.492,165.951 350.662 C 168.095 370.657,179.979 380.022,204.052 380.684 C 231.144 381.429,244.680 372.253,247.252 351.401 C 250.090 328.388,237.030 313.294,213.000 311.814 C 210.800 311.678,208.280 311.508,207.400 311.436 C 206.520 311.364,203.730 311.461,201.200 311.653 M212.860 330.174 C 222.197 331.839,226.121 336.573,226.144 346.200 C 226.171 357.544,221.134 362.282,208.595 362.710 C 193.528 363.223,187.064 358.266,187.064 346.200 C 187.064 333.360,196.803 327.310,212.860 330.174 " stroke="none" fill="#120b0b" fill-rule="evenodd"></path></g></svg>